<svg width="1440" height="108" preserveAspectRatio="none" viewBox="0 0 1440 108" fill="none" xmlns="http://www.w3.org/2000/svg">
<path d="M0 67.2447L719.218 79.2845L1440 35.793V116.407H720H0V67.2447Z" fill="#03041D"/>
<path d="M1440.97 1.09213C1480.14 0.315463 1526.56 4.5782 1563.18 9.03158C1581.49 11.2586 1597.36 13.5335 1608.65 15.2523C1614.29 16.1117 1618.79 16.8318 1621.88 17.3372C1623.43 17.5899 1624.62 17.7893 1625.42 17.9251C1625.83 17.993 1626.14 18.0452 1626.34 18.0804C1626.44 18.0979 1626.52 18.1115 1626.57 18.1204C1626.6 18.1249 1626.62 18.128 1626.63 18.1302C1626.64 18.1313 1626.64 18.1326 1626.65 18.1331L1626.65 18.1341C1626.65 18.1393 1626.64 18.1865 1626.57 18.6165L1626.65 18.1341L1627.06 18.2044L1627.75 53.0833C1620.16 52.0339 1611.72 50.9232 1602.69 49.8245C1566.07 45.3712 1519.64 41.1085 1480.48 41.8851C1441.3 42.662 1382.64 53.2962 1316.76 64.513C1250.86 75.7343 1177.68 87.5469 1109.39 90.7093C1041.09 93.8756 890.368 95.7346 801.241 90.7093C712.14 85.6854 633.696 79.6918 608.205 78.9906C557.228 77.5882 308.016 76.7413 205.494 87.6683C154.287 93.1261 50.8226 93.5319 -48.165 89.8685C-97.6537 88.037 -146.013 85.1887 -186.149 81.4476C-207.488 79.4586 -226.488 77.2176 -242.094 74.7464C-240.304 59.6107 -238.137 47.7332 -235.544 39.5911C-234.047 34.8904 -232.392 31.3829 -230.55 29.2142C-229.625 28.1257 -228.635 27.3514 -227.57 26.9476C-226.496 26.5403 -225.379 26.5215 -224.237 26.8929C-207.678 32.2806 -178.922 36.9133 -143.461 40.6556C-108.013 44.3965 -65.9046 47.2441 -22.667 49.0755C63.8163 52.7387 154.781 52.3332 205.988 46.8753C308.51 35.9483 557.721 36.7953 608.699 38.1976C634.19 38.8989 712.634 44.8925 801.736 49.9163C890.862 54.9416 1041.59 53.0827 1109.88 49.9163C1178.17 46.7542 1241.34 34.9433 1297.24 23.723C1353.12 12.5073 1401.78 1.86924 1440.97 1.09213Z" fill="#F6F0E9"/>
<path d="M1626.65 18.1341L1626.65 18.1331C1626.64 18.1326 1626.64 18.1313 1626.63 18.1302C1626.62 18.128 1626.6 18.1249 1626.57 18.1204C1626.52 18.1115 1626.44 18.0979 1626.34 18.0804C1626.14 18.0452 1625.83 17.993 1625.42 17.9251C1624.62 17.7893 1623.43 17.5899 1621.88 17.3372C1618.79 16.8318 1614.29 16.1117 1608.65 15.2523C1597.36 13.5335 1581.49 11.2586 1563.18 9.03158C1526.56 4.5782 1480.14 0.315463 1440.97 1.09213C1401.78 1.86924 1353.12 12.5073 1297.24 23.723C1241.34 34.9433 1178.17 46.7542 1109.88 49.9163C1041.59 53.0827 890.862 54.9416 801.736 49.9163C712.634 44.8925 634.19 38.8989 608.699 38.1976C557.721 36.7953 308.51 35.9483 205.988 46.8753C154.781 52.3332 63.8163 52.7387 -22.667 49.0755C-65.9046 47.2441 -108.013 44.3965 -143.461 40.6556C-178.922 36.9133 -207.678 32.2806 -224.237 26.8929C-225.379 26.5215 -226.496 26.5403 -227.57 26.9476C-228.635 27.3514 -229.625 28.1257 -230.55 29.2142C-232.392 31.3829 -234.047 34.8904 -235.544 39.5911C-238.137 47.7332 -240.304 59.6107 -242.094 74.7464C-226.488 77.2176 -207.488 79.4586 -186.149 81.4476C-146.013 85.1887 -97.6537 88.037 -48.165 89.8685C50.8226 93.5319 154.287 93.1261 205.494 87.6683C308.016 76.7413 557.228 77.5882 608.205 78.9906C633.696 79.6918 712.14 85.6854 801.241 90.7093C890.368 95.7346 1041.09 93.8756 1109.39 90.7093C1177.68 87.5469 1250.86 75.7343 1316.76 64.513C1382.64 53.2962 1441.3 42.662 1480.48 41.8851C1519.64 41.1085 1566.07 45.3712 1602.69 49.8245C1611.72 50.9232 1620.16 52.0339 1627.75 53.0833L1627.06 18.2044L1626.65 18.1341ZM1626.65 18.1341C1626.65 18.1393 1626.64 18.1865 1626.57 18.6165L1626.65 18.1341Z" stroke="black" stroke-miterlimit="10"/>
</svg>
