<svg width="1349" height="685" viewBox="0 0 1349 685" fill="none" xmlns="http://www.w3.org/2000/svg">
<g clip-path="url(#clip0_4051_4418)">
<path d="M1039.09 148.483L1039.06 148.503L1024.35 154.073L1036.34 173.543L1054.88 172.203L1039.09 148.483ZM1037.68 165.773C1035.62 165.693 1034.01 163.953 1034.1 161.893C1034.18 159.823 1035.92 158.223 1037.98 158.303C1040.05 158.393 1041.65 160.133 1041.57 162.193C1041.48 164.253 1039.74 165.863 1037.68 165.773Z" fill="white" stroke="black" stroke-miterlimit="10"/>
<path d="M1029.63 136.503L1024.32 154.023L1024.35 154.073L1039.06 148.503L1039.09 148.483L1059.61 118.463L1029.63 136.503ZM1035.75 144.663C1033.69 144.573 1032.08 142.833 1032.17 140.773C1032.25 138.713 1033.99 137.103 1036.05 137.193C1038.12 137.273 1039.72 139.013 1039.64 141.073C1039.55 143.143 1037.81 144.743 1035.75 144.663Z" fill="white" stroke="black" stroke-miterlimit="10"/>
<path d="M1059.73 118.383L1059.61 118.463L1039.09 148.483L1054.88 172.203H1054.93L1089.38 148.143L1059.73 118.383ZM1060.58 150.893C1058.52 150.813 1056.92 149.073 1057 147.013C1057.08 144.943 1058.82 143.343 1060.89 143.423C1062.95 143.513 1064.55 145.253 1064.47 147.313C1064.38 149.373 1062.64 150.983 1060.58 150.893Z" fill="white" stroke="black" stroke-miterlimit="10"/>
<path d="M1024.35 154.073H1024.34" stroke="black" stroke-miterlimit="10"/>
<path d="M1064.47 147.313C1064.38 149.373 1062.64 150.983 1060.58 150.893C1058.52 150.813 1056.92 149.073 1057 147.013C1057.08 144.943 1058.82 143.343 1060.89 143.423C1062.95 143.513 1064.55 145.253 1064.47 147.313Z" fill="black" stroke="black" stroke-miterlimit="10"/>
<path d="M1041.57 162.193C1041.48 164.253 1039.74 165.863 1037.68 165.773C1035.62 165.693 1034.01 163.953 1034.1 161.893C1034.18 159.823 1035.92 158.223 1037.98 158.303C1040.05 158.393 1041.65 160.133 1041.57 162.193Z" fill="black" stroke="black" stroke-miterlimit="10"/>
<path d="M1039.64 141.073C1039.55 143.143 1037.81 144.743 1035.75 144.663C1033.69 144.573 1032.08 142.833 1032.17 140.773C1032.25 138.713 1033.99 137.103 1036.05 137.193C1038.12 137.273 1039.72 139.013 1039.64 141.073Z" fill="black" stroke="black" stroke-miterlimit="10"/>
<path d="M212.036 558.773L186.456 543.493L177.886 538.373L169.406 542.903L170.806 550.953H170.816L172.956 563.223L174.846 574.083L199.716 590.603L210.746 597.933L218.926 591.793L232.196 581.823L240.366 575.693L212.036 558.773ZM204.196 572.553C203.166 572.513 202.366 571.643 202.406 570.613C202.446 569.583 203.316 568.773 204.356 568.823C205.386 568.863 206.186 569.733 206.146 570.763C206.096 571.793 205.226 572.593 204.196 572.553Z" fill="#E686B4" stroke="black" stroke-miterlimit="10"/>
<path d="M206.148 570.763C206.098 571.793 205.228 572.592 204.198 572.552C203.168 572.512 202.368 571.642 202.408 570.612C202.448 569.582 203.318 568.773 204.358 568.823C205.388 568.863 206.188 569.733 206.148 570.763Z" stroke="black" stroke-miterlimit="10"/>
<path d="M179.713 567.953L172.953 563.223" stroke="black" stroke-miterlimit="10"/>
<path d="M190.352 575.093L200.452 582.623L199.722 590.593" stroke="black" stroke-miterlimit="10"/>
<path d="M214.117 583.312L214.677 588.742L218.927 591.793" stroke="black" stroke-miterlimit="10"/>
<path d="M211.867 573.743L219.497 574.053L232.197 581.823" stroke="black" stroke-miterlimit="10"/>
<path d="M212.043 558.773L203.633 559.573" stroke="black" stroke-miterlimit="10"/>
<path d="M175.242 541.823L179.482 544.363L186.452 543.493" stroke="black" stroke-miterlimit="10"/>
<path d="M177.83 556.023L170.82 550.953" stroke="black" stroke-miterlimit="10"/>
<path d="M188.707 550.673L188.438 557.253L196.026 561.643" stroke="black" stroke-miterlimit="10"/>
<path d="M206.148 570.763C206.098 571.793 205.228 572.592 204.198 572.552C203.168 572.512 202.368 571.642 202.408 570.612C202.448 569.582 203.318 568.773 204.358 568.823C205.388 568.863 206.188 569.733 206.148 570.763Z" stroke="black" stroke-miterlimit="10"/>
<path d="M1342.96 419.063L1324.46 438.573L1298.56 397.533L1320.52 387.293L1342.96 419.063Z" fill="white" stroke="black" stroke-miterlimit="10"/>
<path d="M142.68 391.663L128.43 403.213L115.43 395.443C116.03 392.903 118.04 388.503 123.52 388.543C130.04 388.593 130.37 383.803 130.37 383.803C130.37 383.803 130.77 377.583 134.24 378.803C136.57 379.623 139.33 379.283 140.86 378.983H140.87L142.68 391.663Z" fill="#108496" stroke="black" stroke-miterlimit="10"/>
<path d="M140.869 378.983H140.859C139.329 379.283 136.569 379.623 134.239 378.803C130.769 377.583 130.369 383.803 130.369 383.803C130.369 383.803 130.039 388.593 123.519 388.543C118.039 388.503 116.029 392.903 115.429 395.443L110.969 392.783C111.319 392.343 111.649 391.843 111.899 391.293C114.129 386.353 116.879 384.203 119.609 383.853C122.349 383.493 125.519 383.513 127.039 379.173C128.549 374.843 130.889 374.243 131.929 374.283C132.729 374.323 136.789 375.383 140.119 373.743L140.869 378.983Z" fill="#F25D82" stroke="black" stroke-miterlimit="10"/>
<path d="M140.117 373.743C141.097 373.273 142.007 372.563 142.747 371.543C146.047 366.993 147.197 360.583 139.457 356.033C131.717 351.493 120.487 354.733 120.487 354.733C120.487 354.733 118.827 355.153 116.297 356.123" stroke="black" stroke-miterlimit="10"/>
<path d="M110.969 392.783C108.119 396.103 102.519 395.603 102.519 395.603C97.3194 394.913 94.0994 388.873 94.0994 388.873C94.0994 388.873 88.9494 379.063 97.6494 368.683C99.7494 366.183 102.149 364.083 104.599 362.333" stroke="black" stroke-miterlimit="10"/>
<path d="M116.987 359.333C116.837 362.983 113.747 365.823 110.087 365.683C107.717 365.583 105.697 364.253 104.607 362.333C104.607 362.333 104.607 362.33 104.607 362.323C104.007 361.293 103.697 360.073 103.747 358.793C103.887 355.133 106.977 352.293 110.627 352.443C113.137 352.543 115.257 354.023 116.287 356.123C116.777 357.083 117.027 358.183 116.987 359.333Z" fill="#F25D82" stroke="black" stroke-miterlimit="10"/>
<path d="M1111.88 343.762L1102.06 348.302L1070.05 363.102L1071.67 337.712L1099.33 327.712L1106.76 325.022L1111.88 343.762Z" fill="white"/>
<path d="M1111.88 343.762L1102.06 348.302L1070.05 363.102L1071.67 337.712L1099.33 327.712L1106.76 325.022L1111.88 343.762Z" fill="white"/>
<path d="M1111.88 343.762L1102.06 348.302L1070.05 363.102L1071.67 337.712L1099.33 327.712L1106.76 325.022L1111.88 343.762Z" stroke="black" stroke-miterlimit="10"/>
<path d="M1111.88 343.762L1102.06 348.302L1070.05 363.102L1071.67 337.712L1099.33 327.712L1106.76 325.022L1111.88 343.762Z" stroke="black" stroke-miterlimit="10"/>
<path d="M1141.81 349.532L1128.61 370.182L1102.06 348.302L1111.88 343.762L1106.76 325.022L1099.33 327.712L1106.14 318.522L1141.81 349.532Z" fill="white"/>
<path d="M1141.81 349.532L1128.61 370.182L1102.06 348.302L1111.88 343.762L1106.76 325.022L1099.33 327.712L1106.14 318.522L1141.81 349.532Z" fill="white"/>
<path d="M1141.81 349.532L1128.61 370.182L1102.06 348.302L1111.88 343.762L1106.76 325.022L1099.33 327.712L1106.14 318.522L1141.81 349.532Z" stroke="black" stroke-miterlimit="10"/>
<path d="M1141.81 349.532L1128.61 370.182L1102.06 348.302L1111.88 343.762L1106.76 325.022L1099.33 327.712L1106.14 318.522L1141.81 349.532Z" stroke="black" stroke-miterlimit="10"/>
<path d="M341.961 111.123L342.271 112.523V112.493L341.961 111.123ZM351.211 109.063L351.171 109.093L351.211 109.073H351.221L356.771 105.653L351.211 109.063Z" stroke="black" stroke-miterlimit="10"/>
<path d="M340.691 105.413V105.433L341.961 111.123L342.271 112.523L335.161 117.463L337.551 120.963L334.441 125.783L336.101 133.173L327.361 138.123L324.221 113.833L322.961 103.993L341.831 87.2031L345.311 91.1131L341.911 97.4431L343.261 103.143L340.691 105.413Z" fill="#E686B4" stroke="black" stroke-miterlimit="10"/>
<path d="M378.367 82.0836L373.647 100.643L370.288 113.833L336.107 133.173H336.098L334.438 125.783L337.547 120.963L335.158 117.463L342.267 112.523L342.587 113.983H343.228L351.168 109.093L351.207 109.073H351.217L356.767 105.653V105.643L356.517 104.923L353.978 97.6936L352.878 94.5736L352.867 94.5936H352.857L348.827 98.1836L343.267 103.133L343.258 103.143L341.908 97.4436L345.307 91.1136L341.827 87.2036L354.228 76.1536H354.237L362.337 68.9336L378.367 82.0836Z" fill="#E686B4" stroke="black" stroke-miterlimit="10"/>
<path d="M342.594 113.993V113.983" stroke="black" stroke-miterlimit="10"/>
<path d="M352.857 94.5938L348.827 98.1837L343.258 103.153L340.688 105.433" stroke="black" stroke-miterlimit="10"/>
<path d="M352.867 94.5938L353.957 97.7038L356.767 105.643" stroke="black" stroke-miterlimit="10"/>
<path d="M343.229 113.983L343.219 113.993" stroke="black" stroke-miterlimit="10"/>
<path d="M350.898 108.273L353.138 114.153" stroke="black" stroke-miterlimit="10"/>
<path d="M364.87 88.1133L352.93 98.6133" stroke="black" stroke-miterlimit="10"/>
<path d="M373.637 100.643L368.437 103.663L364.047 102.283" stroke="black" stroke-miterlimit="10"/>
<path d="M343.258 103.153V103.143" stroke="black" stroke-miterlimit="10"/>
<path d="M367.862 80.6033L363.032 76.3333L354.242 76.1533" stroke="black" stroke-miterlimit="10"/>
<path d="M1020.11 586.593L966.939 632.073C965.569 633.243 963.869 633.783 962.209 633.713C960.359 633.643 958.559 632.833 957.269 631.313C954.799 628.443 955.139 624.103 958.019 621.643L964.439 616.143L967.999 619.943L1009.16 584.433L1005.81 580.753H1005.82L1011.18 576.163C1012.56 574.983 1014.26 574.443 1015.93 574.513C1017.78 574.583 1019.58 575.393 1020.87 576.913C1023.33 579.803 1022.99 584.123 1020.11 586.593Z" fill="#7EC6F2" stroke="black" stroke-miterlimit="10"/>
<path d="M964.448 616.133L964.438 616.143" stroke="black" stroke-miterlimit="10"/>
<path d="M970.438 582.703C959.468 592.673 946.058 595.873 940.088 590.073L939.938 589.923L939.708 589.673C939.618 589.563 939.518 589.473 939.438 589.363C934.088 582.903 938.548 569.773 949.588 559.733C960.798 549.553 974.568 546.423 980.328 552.773C986.088 559.113 981.668 572.513 970.438 582.703Z" fill="#7EC6F2" stroke="black" stroke-miterlimit="10"/>
<path d="M939.943 589.923C939.863 589.843 939.783 589.763 939.703 589.673H939.713L939.943 589.923Z" stroke="black" stroke-miterlimit="10"/>
<path d="M1002.39 577.003L961.754 613.233H961.744L940.094 590.073C946.064 595.873 959.474 592.673 970.444 582.703C981.674 572.513 986.094 559.113 980.334 552.773H980.344L1002.39 577.003Z" fill="#7EC6F2" stroke="black" stroke-miterlimit="10"/>
<path d="M1005.81 580.753L1002.39 577.003" stroke="black" stroke-miterlimit="10"/>
<path d="M964.442 616.143L961.742 613.243" stroke="black" stroke-miterlimit="10"/>
<path d="M1002.4 576.993L1002.39 577.003" stroke="black" stroke-miterlimit="10"/>
<path d="M215.08 332.943C213.32 337.903 203.44 338.023 203.44 338.023C203.44 338.023 198.67 338.123 195.75 337.483C194.18 337.143 192.29 335.933 191.67 334.253C191.5 333.763 191.43 333.243 191.49 332.693C191.63 331.613 192.31 330.433 193.82 329.203C194.5 328.643 195.27 328.183 196.11 327.803C198.65 326.653 201.75 326.233 204.4 326.153C205.93 326.103 207.32 326.153 208.36 326.243C209.26 326.313 209.91 326.403 210.18 326.453C210.56 326.533 211.3 326.703 212.11 327.023C214.03 327.793 216.33 329.453 215.08 332.943Z" fill="#F25D82" stroke="black" stroke-miterlimit="10"/>
<path d="M208.331 319.733C207.691 322.193 205.801 324.613 204.401 326.153C201.751 326.233 198.651 326.653 196.111 327.803C195.271 328.183 194.501 328.643 193.821 329.203C192.311 330.433 191.631 331.613 191.491 332.693H191.481C190.081 331.983 189.161 330.383 189.691 327.393C190.401 323.413 193.951 319.653 196.781 317.243H196.791C198.461 315.813 199.871 314.873 200.301 314.643C201.241 314.123 204.621 312.353 206.871 314.273C207.411 314.743 207.891 315.413 208.251 316.353C208.671 317.433 208.641 318.583 208.331 319.733Z" fill="#F25D82" stroke="black" stroke-miterlimit="10"/>
<path d="M196.79 317.233H196.78C193.95 319.643 190.4 323.403 189.69 327.383C189.16 330.373 190.08 331.973 191.48 332.683H191.49C191.43 333.233 191.5 333.753 191.67 334.243C190.18 334.593 188.46 333.993 186.88 331.463C183.51 326.003 185.84 316.123 186.28 314.883C186.71 313.643 188.65 308.463 193.34 310.863C195.52 311.973 196.44 314.643 196.8 317.223L196.79 317.233Z" fill="#F25D82" stroke="black" stroke-miterlimit="10"/>
<path d="M215.544 322.543L212.844 323.933" stroke="black" stroke-miterlimit="10"/>
<path d="M208.577 312.293L206.867 314.273" stroke="black" stroke-miterlimit="10"/>
<path d="M195.188 308.223L194.508 311.733" stroke="black" stroke-miterlimit="10"/>
<path d="M217.658 323.973C218.998 324.023 220.128 322.983 220.178 321.653C220.228 320.313 219.188 319.183 217.858 319.133C216.518 319.083 215.388 320.123 215.338 321.453C215.278 322.793 216.328 323.923 217.658 323.973Z" stroke="black" stroke-miterlimit="10"/>
<path d="M210.166 312.963C211.506 313.013 212.636 311.973 212.686 310.643C212.736 309.303 211.696 308.173 210.366 308.123C209.026 308.073 207.896 309.113 207.846 310.443C207.786 311.783 208.836 312.913 210.166 312.963Z" stroke="black" stroke-miterlimit="10"/>
<path d="M195.908 308.363C197.248 308.413 198.378 307.373 198.428 306.043C198.478 304.703 197.438 303.583 196.108 303.523C194.768 303.473 193.638 304.513 193.588 305.843C193.528 307.183 194.578 308.313 195.908 308.363Z" stroke="black" stroke-miterlimit="10"/>
<path d="M190.62 334.343C189.01 337.363 180.55 350.923 157.93 353.883" stroke="black" stroke-miterlimit="10"/>
<path d="M212.838 323.924L208.358 326.234C207.318 326.154 205.928 326.104 204.398 326.154C205.798 324.614 207.688 322.194 208.328 319.734H208.358C209.918 319.704 211.438 320.293 212.348 322.223C212.628 322.813 212.788 323.384 212.838 323.924Z" fill="#F25D82" stroke="black" stroke-miterlimit="10"/>
<path d="M212.109 327.023C211.299 326.703 210.559 326.533 210.179 326.453C209.909 326.403 209.259 326.313 208.359 326.243L212.839 323.933C212.979 325.093 212.649 326.123 212.109 327.023Z" fill="#F25D82" stroke="black" stroke-miterlimit="10"/>
<path d="M177.372 347.493C177.372 347.493 189.752 346.983 190.612 362.073C190.612 362.073 177.072 360.763 177.372 347.493Z" stroke="black" stroke-miterlimit="10"/>
<path d="M1214.27 351.693L1213.48 367.023L1198.49 369.243L1199.09 354.563L1214.27 351.693Z" fill="#E686B4" stroke="black" stroke-miterlimit="10"/>
<path d="M1184.95 357.253L1183.67 371.443L1198.49 369.243L1199.09 354.563L1214.27 351.693L1215.08 335.803L1199.66 340.453" stroke="black" stroke-miterlimit="10"/>
<path d="M1199.66 340.453L1199.09 354.563L1184.95 357.253L1186.09 344.553L1199.66 340.453Z" fill="#E686B4" stroke="black" stroke-linejoin="round"/>
<path d="M1198.49 369.253V369.243" stroke="black" stroke-miterlimit="10"/>
<path d="M830.062 662.673L828.922 675.363L815.352 679.453L815.922 665.353L830.062 662.673Z" fill="#E686B4" stroke="black" stroke-miterlimit="10"/>
<path d="M816.517 650.673L815.917 665.353L800.737 668.233H800.727L801.517 652.893L816.517 650.673Z" fill="#E686B4" stroke="black" stroke-miterlimit="10"/>
<path d="M815.922 665.354L815.352 679.453L799.922 684.113L800.732 668.233H800.742L815.922 665.354Z" fill="white" stroke="black" stroke-miterlimit="10"/>
<path d="M831.342 648.473L830.062 662.673L815.922 665.353L816.522 650.673L831.342 648.473Z" fill="white" stroke="black" stroke-miterlimit="10"/>
<path d="M815.352 679.473V679.453" stroke="black" stroke-miterlimit="10"/>
<path d="M1129.06 112.073L1115.48 118.753L1102.22 106.073L1105.05 93.5938C1106.55 94.0137 1109.27 94.5838 1111.66 93.9538C1115.22 93.0238 1115.11 99.2538 1115.11 99.2538C1115.11 99.2538 1115.05 104.053 1121.56 104.533C1127.02 104.933 1128.67 109.483 1129.06 112.073Z" fill="#E686B4" stroke="black" stroke-miterlimit="10"/>
<path d="M1133.74 109.763L1129.06 112.073" stroke="black" stroke-miterlimit="10"/>
<path d="M1150.87 107.243C1150.87 107.243 1147.16 113.003 1141.93 113.263C1141.93 113.263 1136.3 113.303 1133.74 109.763C1133.42 109.303 1133.13 108.783 1132.93 108.203C1131.11 103.093 1128.54 100.733 1125.84 100.163C1123.14 99.5836 1119.97 99.3436 1118.82 94.9036C1117.67 90.4536 1115.39 89.6736 1114.35 89.6236C1113.54 89.5936 1109.41 90.3236 1106.22 88.4236C1105.29 87.8736 1104.44 87.0936 1103.78 86.0136C1100.86 81.2136 1100.24 74.7236 1108.32 70.8236C1116.4 66.9236 1127.33 71.0636 1127.33 71.0636C1127.33 71.0636 1128.95 71.6236 1131.4 72.7936C1130.84 73.7136 1130.5 74.7936 1130.45 75.9436C1130.31 79.6036 1133.15 82.6836 1136.81 82.8336C1139.18 82.9336 1141.32 81.7636 1142.55 79.9336H1142.56C1144.86 81.8836 1147.08 84.1736 1148.96 86.8336C1156.79 97.8836 1150.87 107.243 1150.87 107.243Z" fill="#E686B4" stroke="black" stroke-miterlimit="10"/>
<path d="M1143.7 76.4833C1143.65 77.7633 1143.23 78.9533 1142.55 79.9333C1141.32 81.7633 1139.18 82.9333 1136.81 82.8333C1133.15 82.6833 1130.31 79.6033 1130.45 75.9433C1130.5 74.7933 1130.84 73.7133 1131.4 72.7933C1132.6 70.7933 1134.84 69.4933 1137.34 69.5933C1141 69.7433 1143.84 72.8233 1143.7 76.4833Z" stroke="black" stroke-miterlimit="10"/>
<path d="M659.739 90.0234C658.249 90.9434 656.279 90.4434 655.369 88.9434C654.449 87.4434 654.949 85.4734 656.449 84.5634C657.949 83.6534 659.919 84.1334 660.829 85.6534C661.739 87.1534 661.239 89.1134 659.739 90.0234Z" stroke="black" stroke-linejoin="round"/>
<path d="M648.301 77.7636C646.801 78.6736 644.831 78.1736 643.921 76.6736C643.011 75.1736 643.491 73.2136 645.001 72.2936C646.521 71.3836 648.471 71.8736 649.381 73.3836C650.281 74.8936 649.801 76.8436 648.301 77.7636Z" stroke="black" stroke-linejoin="round"/>
<path d="M663.309 75.2229C661.809 76.1329 659.839 75.633 658.929 74.133C658.019 72.633 658.499 70.663 660.009 69.753C661.519 68.853 663.479 69.333 664.389 70.843C665.299 72.343 664.799 74.3029 663.309 75.2229Z" stroke="black" stroke-linejoin="round"/>
<path d="M668.482 68.2931C666.152 64.4331 661.132 63.1831 657.262 65.5231C656.372 66.0631 655.612 66.7431 655.002 67.5331C654.962 67.5931 654.932 67.6331 654.892 67.6931C654.862 67.7431 654.822 67.7931 654.782 67.8531C654.782 67.8531 654.772 67.8831 654.752 67.8931C654.312 68.4731 653.722 69.1631 653.292 69.2431C652.662 69.3831 652.152 69.1831 650.922 68.5531C650.922 68.5331 650.892 68.5331 650.892 68.5331C650.662 68.4031 650.442 68.2831 650.192 68.1631C650.172 68.1631 650.162 68.1431 650.142 68.1431C647.772 67.0731 644.922 67.1531 642.532 68.5931C639.712 70.2931 638.292 73.4031 638.622 76.4731C638.752 77.6231 639.102 78.7231 639.762 79.8131C640.382 80.8431 641.202 81.6831 642.122 82.3231C642.122 82.3231 642.242 82.4031 642.282 82.4331C642.282 82.4331 642.292 82.4331 642.302 82.4431C644.452 84.0231 642.672 85.4631 642.672 85.4631L634.662 93.1331L625.132 102.173L622.012 105.103L615.502 111.353L602.552 97.3131L591.352 107.733L604.032 122.153C604.032 122.153 602.182 124.023 601.222 124.973C600.252 125.923 599.562 126.763 599.292 128.193C599.062 129.453 600.022 130.603 600.252 130.863C600.282 130.893 600.292 130.903 600.292 130.903C600.292 130.903 601.342 132.153 602.652 132.453C603.952 132.753 605.232 131.533 605.232 131.533C605.232 131.533 616.682 120.203 630.342 106.983V106.963C633.202 104.193 636.012 101.483 638.702 98.8731C640.522 97.1131 642.292 95.4031 643.982 93.7631L644.132 93.6031C644.552 93.1931 644.942 92.8131 645.302 92.4731C646.692 91.1431 647.532 90.3331 647.692 90.1931C649.492 88.6031 650.492 90.8131 650.492 90.8131H650.502C650.622 91.1131 650.782 91.4031 650.952 91.6831C653.292 95.5431 658.322 96.7931 662.172 94.4531C666.032 92.1231 667.282 87.0931 664.942 83.2331C664.922 83.1831 664.862 83.0931 664.862 83.0931H664.872C664.642 82.5531 664.442 81.8631 664.582 81.2931C664.762 80.5631 665.682 79.6731 666.332 79.1031C666.402 79.0431 666.472 78.9831 666.532 78.9331C666.602 78.8831 666.662 78.8331 666.712 78.7931C666.782 78.7331 666.852 78.6731 666.922 78.6131C666.932 78.6131 666.952 78.5831 666.962 78.5831C666.962 78.5831 666.968 78.5764 666.982 78.5631H666.992C669.832 75.9731 670.542 71.6931 668.472 68.2931H668.482ZM648.302 77.7631C646.802 78.6731 644.832 78.1731 643.922 76.6731C643.012 75.1731 643.492 73.2131 645.002 72.2931C646.522 71.3831 648.472 71.8731 649.382 73.3831C650.282 74.8931 649.802 76.8431 648.302 77.7631ZM659.742 90.0231C658.252 90.9431 656.282 90.4431 655.372 88.9431C654.452 87.4431 654.952 85.4731 656.452 84.5631C657.952 83.6531 659.922 84.1331 660.832 85.6531C661.742 87.1531 661.242 89.1131 659.742 90.0231ZM663.312 75.2231C661.812 76.1331 659.842 75.6331 658.932 74.1331C658.022 72.6331 658.502 70.6631 660.012 69.7531C661.522 68.8531 663.482 69.3331 664.392 70.8431C665.302 72.3431 664.802 74.3031 663.312 75.2231Z" fill="#FFD57A" stroke="black" stroke-linejoin="round"/>
<path d="M654.89 67.6934C654.84 67.7534 654.79 67.8134 654.75 67.8734V67.8934" stroke="black" stroke-linejoin="round"/>
<path d="M666.54 78.9336C666.47 78.9936 666.39 79.0436 666.32 79.1036" stroke="black" stroke-linejoin="round"/>
<path d="M666.989 78.5635V78.5935C666.989 78.5935 666.979 78.6035 666.949 78.6135C666.899 78.6535 666.819 78.7135 666.719 78.7935" stroke="black" stroke-linejoin="round"/>
<path d="M655.03 67.5137C655.03 67.5137 655 67.5337 655 67.5437" stroke="black" stroke-linejoin="round"/>
<path d="M610.089 110.203L602.469 101.913" stroke="black" stroke-linejoin="round"/>
<path d="M607.143 113.143L599.383 105.083" stroke="black" stroke-linejoin="round"/>
<path d="M630.362 106.973L630.352 106.983" stroke="black" stroke-linejoin="round"/>
<path d="M638.049 612.283L627.009 597.883L609.179 619.583L593.039 639.213L602.979 650.273L614.459 663.043L630.549 642.013L645.689 622.243L638.049 612.283ZM625.059 637.813L609.859 644.093L615.309 624.623L631.029 617.663L625.059 637.813Z" fill="white" stroke="black" stroke-miterlimit="10"/>
<path d="M631.029 617.663L625.059 637.813L609.859 644.093L615.309 624.623L631.029 617.663Z" fill="#F25D82" stroke="black" stroke-miterlimit="10"/>
<path d="M524.303 14.4631L501.503 0.663086L483.773 24.5431L497.743 74.8631L538.723 64.0831L524.303 14.4631ZM502.983 65.1931L497.183 45.5431L491.533 26.3831L503.713 10.0631L518.313 20.6831L528.753 58.7631L520.283 60.8731L502.983 65.1931Z" fill="#F25D82" stroke="black" stroke-miterlimit="10"/>
<path d="M528.751 58.7635L520.281 60.8735L502.981 65.1935L497.181 45.5435L491.531 26.3835L503.711 10.0635L518.311 20.6835L528.751 58.7635Z" stroke="black" stroke-miterlimit="10"/>
<path d="M528.751 58.7635L520.281 60.8735L502.981 65.1935L497.181 45.5435L491.531 26.3835L503.711 10.0635L518.311 20.6835L528.751 58.7635Z" stroke="black" stroke-miterlimit="10"/>
<path d="M504.133 43.5029L518.623 54.2229" stroke="black" stroke-miterlimit="10"/>
<path d="M500.938 30.2734L519.198 44.3934" stroke="black" stroke-miterlimit="10"/>
<path d="M911.729 454.113C911.729 454.113 911.699 454.173 911.679 454.183L911.659 454.203C911.539 454.343 911.439 454.473 911.309 454.593C908.389 457.583 905.449 460.553 902.519 463.533C901.469 464.623 899.469 465.133 898.079 465.433C893.599 466.363 888.959 465.223 884.869 463.363C879.729 461.013 875.249 457.743 871.339 453.853C869.179 451.693 867.179 449.353 865.339 446.853C863.699 444.643 862.169 442.323 860.889 439.873C859.559 437.353 858.899 434.833 858.039 432.173C858.039 432.173 856.589 427.653 858.879 422.923C861.529 420.333 864.209 417.773 866.829 415.173L867.179 414.823L867.289 414.713C867.779 414.233 868.269 413.743 868.739 413.263L868.899 413.113H868.909C866.279 416.083 861.199 425.703 879.159 445.633C884.309 451.343 891.379 455.633 898.949 456.993C901.329 457.423 903.779 457.623 906.179 457.233C908.449 456.863 910.139 455.673 911.729 454.113Z" fill="#FFD57A" stroke="black" stroke-linecap="round" stroke-linejoin="round"/>
<path d="M868.906 413.113L868.916 413.093H868.926" stroke="black" stroke-linecap="round" stroke-linejoin="round"/>
<path d="M886.023 412.553H886.053" stroke="black" stroke-linecap="round" stroke-linejoin="round"/>
<path d="M913.153 451.443C913.143 451.533 913.093 451.603 913.073 451.693C913.063 451.733 913.063 451.753 913.043 451.783C912.733 452.583 912.333 453.343 911.783 454.023V454.053C911.783 454.053 911.783 454.073 911.773 454.073H911.753V454.093C911.753 454.093 911.753 454.113 911.733 454.113C910.143 455.673 908.453 456.863 906.183 457.233C903.783 457.623 901.333 457.423 898.953 456.993C891.383 455.633 884.313 451.343 879.163 445.633C861.203 425.703 866.283 416.083 868.913 413.113L868.933 413.093C868.933 413.093 868.963 413.053 868.983 413.043C869.123 412.923 869.243 412.803 869.383 412.693C870.083 412.123 870.883 411.683 871.733 411.363C871.763 411.363 871.783 411.343 871.793 411.343C871.803 411.343 871.823 411.333 871.833 411.333C873.893 410.573 876.293 410.453 878.503 410.663C878.683 410.663 878.853 410.683 879.003 410.703C879.133 410.723 879.243 410.723 879.353 410.753C879.603 410.783 879.823 410.813 880.063 410.843C880.253 410.863 880.433 410.893 880.613 410.933C880.663 410.943 880.723 410.953 880.783 410.963C880.833 410.963 880.883 410.973 880.933 410.993C881.213 411.033 881.483 411.093 881.753 411.173C881.953 411.203 882.153 411.253 882.343 411.313C882.753 411.413 883.163 411.523 883.553 411.653C883.773 411.723 883.983 411.783 884.193 411.853C884.603 411.993 885.003 412.133 885.403 412.303C885.613 412.383 885.803 412.453 886.023 412.553H886.003C881.683 413.913 878.003 416.223 875.813 417.823C875.533 418.023 875.273 418.223 875.043 418.393H875.033C874.133 419.103 873.623 419.563 873.623 419.563C873.623 419.563 869.533 428.083 883.163 441.443C896.803 454.803 905.233 449.563 905.233 449.563C905.233 449.563 905.483 449.243 905.863 448.653C905.863 448.653 905.873 448.633 905.873 448.623C905.993 448.423 906.153 448.193 906.323 447.913C907.663 445.753 909.873 441.643 910.943 436.773C910.953 436.753 910.953 436.723 910.953 436.713C911.563 437.963 912.113 439.263 912.543 440.593C912.603 440.753 912.663 440.923 912.713 441.093C912.833 441.473 912.953 441.863 913.043 442.263C913.113 442.543 913.183 442.813 913.243 443.083C913.443 443.983 913.603 444.943 913.683 445.923C913.693 446.073 913.713 446.243 913.713 446.403C913.833 448.103 913.693 449.853 913.153 451.443Z" fill="#FFD57A" stroke="black" stroke-linecap="round" stroke-linejoin="round"/>
<path d="M870.027 412.073C870.027 412.073 869.567 412.373 868.977 413.043" stroke="black" stroke-linecap="round" stroke-linejoin="round"/>
<path d="M912.161 453.673C912.041 453.803 911.911 453.933 911.781 454.043" stroke="black" stroke-linecap="round" stroke-linejoin="round"/>
<path d="M911.77 454.073C911.77 454.073 911.76 454.083 911.75 454.083" stroke="black" stroke-linecap="round" stroke-linejoin="round"/>
<path d="M888.462 437.913H888.472M888.472 437.913C887.722 437.893 886.982 437.613 886.402 437.033C885.612 436.233 885.382 435.113 885.692 434.113C885.822 433.703 886.052 433.333 886.342 433.003C886.022 433.323 885.812 433.693 885.672 434.103L878.872 422.723L888.122 432.103C888.122 432.103 888.132 432.093 888.142 432.093C889.002 432.003 889.872 432.273 890.532 432.933C891.322 433.723 891.562 434.853 891.242 435.853C891.242 435.853 891.239 435.86 891.232 435.873C891.092 436.303 890.862 436.713 890.502 437.053H890.532C890.862 436.713 891.112 436.313 891.242 435.883L897.502 447.063L888.472 437.913ZM888.482 437.903C889.032 437.903 889.572 437.743 890.042 437.423C889.572 437.733 889.022 437.893 888.482 437.903ZM886.392 432.953L886.412 432.933H886.402C886.402 432.933 886.392 432.943 886.392 432.953ZM905.522 416.943C899.232 410.663 892.032 410.673 886.052 412.553H886.002C881.682 413.913 878.002 416.223 875.812 417.823C875.532 418.023 875.272 418.223 875.042 418.393H875.032C874.132 419.103 873.622 419.563 873.622 419.563C873.622 419.563 869.532 428.083 883.162 441.443C896.802 454.803 905.232 449.563 905.232 449.563C905.232 449.563 905.482 449.243 905.862 448.653C905.862 448.653 905.872 448.633 905.872 448.623C905.992 448.423 906.152 448.193 906.322 447.913C907.662 445.753 909.872 441.643 910.942 436.773C910.952 436.753 910.952 436.723 910.952 436.713C912.282 430.573 911.802 423.223 905.522 416.943Z" stroke="black" stroke-linecap="round" stroke-linejoin="round"/>
<path d="M905.871 448.623C907.481 444.573 907.431 437.323 896.771 426.743C885.781 415.823 878.741 416.423 875.041 418.413H875.031" stroke="black" stroke-linecap="round" stroke-linejoin="round"/>
<path d="M888.123 432.103C887.993 432.113 887.863 432.143 887.733 432.183C887.713 432.183 887.693 432.183 887.673 432.193C887.603 432.213 887.523 432.233 887.453 432.263C887.393 432.283 887.333 432.303 887.273 432.333C887.263 432.343 887.243 432.343 887.233 432.353C887.083 432.433 886.933 432.513 886.803 432.603C886.673 432.703 886.543 432.803 886.423 432.923H886.413C886.413 432.923 886.409 432.93 886.403 432.943C886.053 433.283 885.823 433.673 885.683 434.103L878.883 422.713L888.133 432.093L888.123 432.103Z" fill="#FFD57A" stroke="black" stroke-linecap="round" stroke-linejoin="round"/>
<path d="M891.241 435.853C891.241 435.853 891.241 435.863 891.231 435.873C891.091 436.293 890.861 436.713 890.501 437.053C890.361 437.193 890.211 437.313 890.051 437.423C889.581 437.733 889.031 437.893 888.491 437.903C887.741 437.893 887.001 437.613 886.421 437.033C885.631 436.233 885.401 435.113 885.711 434.113C885.851 433.683 886.091 433.293 886.411 432.953L886.431 432.933C886.551 432.803 886.681 432.703 886.811 432.603C886.941 432.513 887.091 432.433 887.241 432.353C887.251 432.343 887.271 432.343 887.281 432.333C887.341 432.303 887.401 432.283 887.461 432.263C887.531 432.233 887.611 432.213 887.681 432.193C887.701 432.183 887.721 432.183 887.741 432.183C887.871 432.143 888.001 432.113 888.131 432.103C888.131 432.103 888.138 432.1 888.151 432.093C889.011 432.003 889.881 432.273 890.541 432.933C891.331 433.723 891.571 434.853 891.251 435.853H891.241Z" fill="#FFD57A" stroke="black" stroke-linecap="round" stroke-linejoin="round"/>
<path d="M888.477 437.903C889.017 437.893 889.567 437.733 890.037 437.423C889.567 437.743 889.027 437.903 888.477 437.903Z" stroke="black" stroke-linecap="round" stroke-linejoin="round"/>
<path d="M891.232 435.873C891.102 436.313 890.852 436.713 890.522 437.043H890.502H890.492C890.852 436.703 891.082 436.283 891.222 435.853L891.232 435.873Z" stroke="black" stroke-linecap="round" stroke-linejoin="round"/>
<path d="M897.491 447.063L888.461 437.913H888.471V437.903C889.021 437.903 889.561 437.743 890.031 437.423C890.191 437.313 890.341 437.193 890.481 437.053H890.511C890.841 436.713 891.091 436.313 891.221 435.883L897.481 447.063H897.491Z" fill="#FFD57A" stroke="black" stroke-linecap="round" stroke-linejoin="round"/>
<path d="M890.037 437.423C889.567 437.743 889.027 437.903 888.477 437.903C889.017 437.893 889.567 437.733 890.037 437.423Z" stroke="black" stroke-linecap="round" stroke-linejoin="round"/>
<path d="M891.232 435.873C891.102 436.313 890.852 436.713 890.522 437.043H890.502H890.492C890.852 436.703 891.082 436.283 891.222 435.853L891.232 435.873Z" stroke="black" stroke-linecap="round" stroke-linejoin="round"/>
<path d="M427.409 666.464L398.539 682.134L394.289 664.384L418.929 651.284L427.409 666.464Z" fill="#7EC6F2" stroke="black" stroke-miterlimit="10"/>
<path d="M398.542 682.133L368.252 675.593L366.852 671.673L364.492 665.043L394.292 664.383L398.542 682.133Z" fill="#7EC6F2" stroke="black" stroke-miterlimit="10"/>
<path d="M431.545 630.883L418.925 651.284L401.595 640.184L401.195 632.474L409.115 630.434L410.555 637.143C410.555 637.143 411.685 640.104 414.335 639.124C416.985 638.144 416.425 635.513 416.425 635.513L414.875 628.953L414.885 628.943L421.075 627.354L431.545 630.883Z" fill="#7EC6F2" stroke="black" stroke-miterlimit="10"/>
<path d="M435.09 639.413L427.41 666.463L418.93 651.283L431.55 630.883H431.57L435.09 639.413Z" fill="#7EC6F2" stroke="black" stroke-miterlimit="10"/>
<path d="M418.93 651.284L394.29 664.384L389.07 646.794L401.6 640.184L418.93 651.284Z" fill="#7EC6F2" stroke="black" stroke-miterlimit="10"/>
<path d="M394.291 664.383L364.491 665.043L364.461 664.933L365.691 661.133L366.991 657.133L372.511 651.453H372.521L375.391 654.793C375.391 654.793 377.441 656.983 379.181 655.223C380.921 653.443 379.421 651.633 379.421 651.633L376.101 647.763L380.491 643.243L389.071 646.793L394.291 664.383Z" fill="#7EC6F2" stroke="black" stroke-miterlimit="10"/>
<path d="M414.336 639.124C411.686 640.104 410.556 637.144 410.556 637.144L409.116 630.444L406.076 616.294L387.636 611.364L370.196 619.944L364.636 634.384L376.096 647.764L379.416 651.634C379.416 651.634 380.916 653.444 379.176 655.224C377.436 656.984 375.386 654.794 375.386 654.794L372.516 651.454H372.506L358.086 634.704L365.666 615.684L387.436 605.694L410.966 612.394L414.876 628.944L416.426 635.514C416.426 635.514 416.986 638.144 414.336 639.124Z" fill="#7EC6F2" stroke="black" stroke-miterlimit="10"/>
<path d="M401.602 640.183L389.072 646.793L380.492 643.243L380.522 643.203L389.892 638.323L390.992 640.443C390.992 640.443 391.962 640.923 392.972 640.303C393.992 639.693 393.582 638.963 393.582 638.963L392.502 636.983L401.092 632.503L401.202 632.473L401.602 640.183Z" fill="#7EC6F2" stroke="black" stroke-miterlimit="10"/>
<path d="M392.968 640.303C391.958 640.923 390.988 640.443 390.988 640.443L389.888 638.333L386.578 631.973L388.308 631.603L389.088 630.793L392.498 636.983L393.578 638.963C393.578 638.963 393.988 639.693 392.968 640.303Z" fill="#FFD57A" stroke="black" stroke-miterlimit="10"/>
<path d="M394.257 625.444L389.087 630.794L388.307 631.604L386.577 631.964L378.617 633.624L384.307 625.094L394.257 625.444Z" fill="#FFD57A" stroke="black" stroke-miterlimit="10"/>
<path d="M366.849 671.673L355.209 669.573L345.019 671.363L343.469 666.843L352.569 662.913L365.689 661.133L364.459 664.933L364.489 665.043L366.849 671.673Z" fill="#FFD57A" stroke="black" stroke-miterlimit="10"/>
<path d="M457.137 568.663L470.947 555.323L460.637 544.023L446.587 556.963L440.607 550.213L437.727 547.033L428.967 537.263L421.607 528.963C421.607 528.963 419.957 527.373 422.217 525.983C422.227 525.973 422.247 525.973 422.247 525.973C423.287 525.413 424.227 524.613 424.967 523.573C425.717 522.543 426.157 521.473 426.377 520.333C426.947 517.303 425.787 514.083 423.127 512.163C420.857 510.533 418.017 510.223 415.577 511.093C415.547 511.093 415.537 511.123 415.517 511.113C415.257 511.213 415.027 511.313 414.787 511.423C414.787 511.423 414.787 511.423 414.767 511.443C413.487 511.973 412.957 512.123 412.337 511.943C411.917 511.823 411.377 511.073 410.987 510.453H410.997C410.927 510.343 410.867 510.223 410.797 510.123C410.787 510.123 410.777 510.083 410.777 510.083C410.227 509.243 409.537 508.503 408.687 507.893C405.017 505.253 399.917 506.083 397.277 509.743C394.947 512.963 395.307 517.303 397.927 520.113H397.937L397.947 520.133C397.967 520.133 397.977 520.153 397.987 520.153C398.047 520.223 398.117 520.293 398.187 520.363C398.237 520.413 398.297 520.463 398.357 520.523L398.537 520.703C399.147 521.323 399.997 522.283 400.107 523.023C400.197 523.613 399.947 524.273 399.677 524.793C399.677 524.793 399.607 524.873 399.577 524.923C396.937 528.573 397.777 533.693 401.427 536.333C405.087 538.973 410.197 538.143 412.837 534.483C413.037 534.223 413.217 533.943 413.357 533.653H413.367C413.367 533.653 414.547 531.543 416.207 533.273C416.367 533.423 417.137 534.293 418.417 535.743C418.737 536.103 419.097 536.523 419.487 536.953L419.617 537.113C421.177 538.893 422.797 540.743 424.467 542.643C426.937 545.463 429.517 548.393 432.147 551.393H432.127C444.667 565.683 455.167 577.913 455.167 577.913C455.167 577.913 456.347 579.243 457.667 579.043C458.997 578.843 460.137 577.693 460.137 577.693C460.137 577.693 460.157 577.683 460.187 577.653C460.437 577.413 461.487 576.343 461.357 575.063C461.217 573.623 460.597 572.723 459.707 571.703C458.817 570.683 457.127 568.663 457.127 568.663H457.137ZM401.157 512.633C402.187 511.203 404.177 510.883 405.607 511.903C407.037 512.923 407.367 514.933 406.337 516.353C405.297 517.773 403.307 518.113 401.887 517.083C400.467 516.043 400.127 514.053 401.157 512.633ZM408.677 531.393C407.647 532.813 405.647 533.153 404.227 532.113C402.807 531.083 402.467 529.083 403.507 527.663C404.537 526.233 406.537 525.903 407.957 526.943C409.377 527.973 409.717 529.973 408.677 531.393ZM416.637 520.823C415.217 519.783 414.887 517.803 415.907 516.373C416.947 514.943 418.927 514.613 420.367 515.643C421.797 516.673 422.117 518.673 421.087 520.093C420.057 521.513 418.057 521.853 416.637 520.823Z" fill="#FFD57A" stroke="black" stroke-linejoin="round"/>
<path d="M399.604 520.619C399.544 520.559 399.473 520.509 399.414 520.449" stroke="black" stroke-linejoin="round"/>
<path d="M423.303 525.909L423.273 525.919" stroke="black" stroke-linejoin="round"/>
<path d="M399.25 520.29C399.15 520.2 399.08 520.13 399.04 520.09C399.01 520.08 399 520.07 399 520.07V520.05" stroke="black" stroke-linejoin="round"/>
<path d="M412.05 510.38V510.37C411.97 510.24 411.91 510.13 411.84 510.04C411.84 510.02 411.83 510.01 411.82 510" stroke="black" stroke-linejoin="round"/>
<path d="M423.465 525.8C423.465 525.8 423.345 525.86 423.305 525.9" stroke="black" stroke-linejoin="round"/>
<path d="M453.094 558.13L460.654 551.18" stroke="black" stroke-linejoin="round"/>
<path d="M455.289 560.32L462.849 553.96" stroke="black" stroke-linejoin="round"/>
<path d="M457.875 562.51L464.825 556.54" stroke="black" stroke-linejoin="round"/>
<path d="M1115.48 485.203L1159.19 508.503" stroke="black" stroke-miterlimit="10"/>
<path d="M1247 588.483L1288.08 616.163" stroke="black" stroke-miterlimit="10"/>
<path d="M13.1484 159.093L25.1284 163.983" stroke="black" stroke-miterlimit="10"/>
<path d="M32.2891 167.503L53.9391 176.243" stroke="black" stroke-miterlimit="10"/>
<path d="M1027.35 73.4131L1018.87 83.1831" stroke="black" stroke-miterlimit="10"/>
<path d="M1014.06 89.5537L998.68 107.133" stroke="black" stroke-miterlimit="10"/>
<path d="M511.5 608.613L521.27 591.383" stroke="black" stroke-miterlimit="10"/>
<path d="M523.617 587.123L526.207 581.933" stroke="black" stroke-miterlimit="10"/>
<path d="M789.597 96.4404L786.23 108.926" stroke="black" stroke-miterlimit="10"/>
<path d="M784.7 113.627L778.617 136.17" stroke="black" stroke-miterlimit="10"/>
<path d="M1178.69 292.893L1156.6 297.713" stroke="black" stroke-miterlimit="10"/>
<path d="M1220.74 173.773L1198.38 185.243" stroke="black" stroke-miterlimit="10"/>
<path d="M700.372 617.483L691.172 621.393" stroke="black" stroke-linejoin="round"/>
<path d="M699.064 614.023L689.844 617.693" stroke="black" stroke-linejoin="round"/>
<path d="M697.576 610.363L688.406 614.173" stroke="black" stroke-linejoin="round"/>
<path d="M244.682 616.433L220.602 651.223" stroke="black" stroke-linecap="round" stroke-linejoin="round"/>
<path d="M79.66 478.913L0.5 497.733" stroke="black" stroke-linecap="round" stroke-linejoin="round"/>
<path d="M94.8828 474.463L115.363 469.333" stroke="black" stroke-linecap="round" stroke-linejoin="round"/>
<path d="M103.701 149.783L67.5312 130.423" stroke="black" stroke-linecap="round" stroke-linejoin="round"/>
<path d="M1301.82 64.2031L1284.65 79.8231M1278.73 85.2031L1256.05 104.643M1347.82 520.073L1319.33 505.823M1136.79 675.003L1109.19 643.833M919.263 675.563L896.273 642.853" stroke="black"/>
</g>
<defs>
<clipPath id="clip0_4051_4418">
<rect width="1349" height="685" fill="white"/>
</clipPath>
</defs>
</svg>
