<svg width="1270" height="687" viewBox="0 0 1270 687" fill="none" xmlns="http://www.w3.org/2000/svg">
<g clip-path="url(#clip0_4051_4256)">
<path d="M93.2787 228.712L93.3187 220.942L88.2787 220.592L89.7787 212.962L83.0987 215.312L83.6587 208.622L77.4688 210.132L78.8287 202.432C82.4687 200.952 85.8787 200.152 88.2087 200.922C94.4787 203.012 100.839 211.192 93.2787 228.732H93.2887L93.2787 228.712Z" fill="white" stroke="black" stroke-miterlimit="10"/>
<path d="M86.5841 241.042L61.6641 212.232C67.1341 207.762 75.3741 203.842 78.9241 202.392L77.5741 210.072L83.7541 208.582L83.2041 215.252L89.8641 212.912L88.3641 220.522L93.3841 220.872L93.3441 228.622C92.2941 231.062 89.7541 236.862 86.6041 241.042H86.5841Z" fill="#F25D82" stroke="black" stroke-miterlimit="10"/>
<path d="M93.4687 206.762C95.0387 206.822 96.3687 205.602 96.4387 204.022C96.4987 202.442 95.2787 201.122 93.6987 201.052C92.1287 200.992 90.7987 202.212 90.7287 203.792C90.6687 205.362 91.8887 206.692 93.4687 206.762Z" fill="#E686B4" stroke="black"/>
<path d="M66.5781 208.912C67.8281 209.062 71.0181 209.782 71.2081 211.302C71.4481 213.202 70.3981 215.682 72.8681 217.032C75.0881 218.252 78.5181 217.582 79.6681 220.142C80.8181 222.702 79.1481 225.162 80.9681 226.802C83.1781 228.812 87.6481 225.182 88.7981 228.062C89.9381 230.942 86.6181 235.212 89.7181 236.282" stroke="black"/>
<path d="M1036.34 429.292L1029.49 425.612L1026.81 429.892L1020.77 424.992L1019.71 431.992L1014.07 428.362L1012.49 434.532L1006.32 429.722C1006.71 425.812 1007.61 422.422 1009.38 420.732C1014.17 416.162 1024.37 414.392 1036.33 429.272V429.292H1036.34Z" fill="white" stroke="black" stroke-miterlimit="10"/>
<path d="M1044.09 441.002L1006.95 449.522C1005.57 442.592 1005.96 433.482 1006.34 429.672L1012.48 434.472L1014.06 428.312L1019.68 431.932L1020.74 424.942L1026.75 429.832L1029.42 425.552L1036.25 429.222C1037.92 431.302 1041.85 436.262 1044.08 440.992H1044.09V441.002Z" fill="#108496" stroke="black" stroke-miterlimit="10"/>
<path d="M1017.06 418.872C1017.86 417.512 1017.4 415.762 1016.04 414.972C1014.68 414.182 1012.93 414.642 1012.13 416.002C1011.34 417.362 1011.8 419.112 1013.16 419.902C1014.52 420.692 1016.27 420.232 1017.06 418.872Z" fill="#E686B4" stroke="black"/>
<path d="M1006.34 443.602C1007.06 442.562 1009.19 440.092 1010.62 440.632C1012.41 441.312 1014.11 443.392 1016.47 441.852C1018.59 440.462 1019.59 437.112 1022.4 437.302C1025.21 437.482 1026.59 440.112 1028.89 439.282C1031.7 438.262 1030.59 432.622 1033.67 432.962C1036.76 433.302 1038.98 438.242 1041.38 435.992" stroke="black"/>
<path d="M132.572 119.482L115.532 141.172L79.9922 141.082L81.8722 119.922L132.572 119.482Z" fill="white" stroke="black" stroke-miterlimit="10"/>
<path d="M188.363 97.9616L164.473 103.732L143.523 75.3416L180.263 67.4316L188.363 97.9616Z" fill="#108496" stroke="black" stroke-miterlimit="10"/>
<path d="M1138.66 416.362L1108.98 418.032L1079.26 460.962L1113.77 485.542L1142.66 442.712L1138.66 416.362ZM1111.48 474.482L1104.44 469.332L1090.05 458.802L1101.42 441.782L1112.52 425.162L1132.86 424.072L1134.05 442.092L1111.48 474.482Z" fill="#7EC6F2" stroke="black" stroke-miterlimit="10"/>
<path d="M1134.05 442.092L1111.48 474.482L1104.44 469.332L1090.05 458.802L1101.42 441.782L1112.52 425.162L1132.86 424.072L1134.05 442.092Z" stroke="black" stroke-miterlimit="10"/>
<path d="M1107.43 445.802L1108.49 463.802" stroke="black" stroke-miterlimit="10"/>
<path d="M1115.56 434.892L1116.4 457.962" stroke="black" stroke-miterlimit="10"/>
<path d="M951.32 498.7L944.52 488.76H944.5L932.35 490.61H932.34L932.32 490.65L942.44 509.82L958.61 509.36L951.32 498.7ZM942.35 495.44C942.39 494.33 943.33 493.46 944.44 493.51C945.56 493.55 946.42 494.49 946.37 495.6C946.33 496.72 945.39 497.58 944.28 497.54C943.17 497.49 942.3 496.55 942.35 495.44ZM944.52 507.46C943.41 507.42 942.54 506.48 942.59 505.37C942.63 504.26 943.57 503.39 944.68 503.44C945.8 503.48 946.66 504.42 946.62 505.53C946.57 506.65 945.63 507.51 944.52 507.46Z" fill="white" stroke="black" stroke-miterlimit="10" stroke-linejoin="round"/>
<path d="M942.151 476.48L932.352 490.61L944.501 488.77H944.521L958.062 480.21L942.151 476.48ZM943.922 485.36C942.812 485.31 941.951 484.38 941.991 483.26C942.041 482.15 942.982 481.29 944.092 481.33C945.202 481.38 946.071 482.32 946.021 483.43C945.981 484.54 945.042 485.41 943.922 485.36Z" fill="white" stroke="black" stroke-miterlimit="10" stroke-linejoin="round"/>
<path d="M964.586 489.741L958.056 480.211L944.516 488.761L951.316 498.701L958.606 509.361L970.126 497.821L964.586 489.741ZM957.396 496.551C956.726 496.531 956.136 496.171 955.796 495.641C955.566 495.301 955.446 494.901 955.466 494.461C955.506 493.341 956.446 492.481 957.556 492.521C958.236 492.551 958.826 492.911 959.166 493.451C959.386 493.781 959.516 494.191 959.496 494.621C959.446 495.731 958.506 496.601 957.396 496.551Z" fill="white" stroke="black" stroke-miterlimit="10" stroke-linejoin="round"/>
<path d="M946.016 483.429C945.976 484.539 945.036 485.409 943.916 485.359C942.806 485.309 941.946 484.379 941.986 483.259C942.036 482.149 942.976 481.289 944.086 481.329C945.196 481.379 946.066 482.319 946.016 483.429Z" fill="black" stroke="black" stroke-miterlimit="10" stroke-linejoin="round"/>
<path d="M1052.23 558.502L1044.08 556.122L1031.71 552.492L1007.81 545.492L1001.26 556.212L991.797 571.692L1008.79 577.322L1018.47 580.522L1042.58 588.502L1049.33 575.262L1052.02 569.972L1054.26 565.572L1057.13 559.942L1052.23 558.502ZM1020.97 572.982L1008.81 560.822L1029.76 559.132L1041.09 571.062L1020.97 572.982Z" fill="white" stroke="black" stroke-miterlimit="10"/>
<path d="M1041.09 571.062L1020.97 572.982L1008.81 560.822L1029.76 559.132L1041.09 571.062Z" fill="#E686B4" stroke="black" stroke-miterlimit="10"/>
<path d="M1012.38 594.862L989.651 596.262L986.371 572.442L984.391 558.042L1001.25 556.212H1001.26L991.801 571.692L1008.79 577.322L1012.38 594.862Z" fill="white" stroke="black" stroke-miterlimit="10"/>
<path d="M1065.23 569.532C1061.77 571.492 1057.02 569.712 1054.26 565.572L1057.13 559.942L1052.23 558.502C1052.38 555.912 1053.54 553.672 1055.61 552.502C1059.27 550.432 1064.41 552.562 1067.06 557.262C1069.72 561.962 1068.89 567.462 1065.23 569.532Z" fill="#E686B4" stroke="black" stroke-miterlimit="10"/>
<path d="M1082.03 574.832L1061.7 586.852L1052.02 569.972L1054.26 565.572C1057.02 569.712 1061.77 571.492 1065.23 569.532C1068.89 567.462 1069.72 561.962 1067.06 557.262C1064.41 552.562 1059.27 550.432 1055.61 552.502C1053.54 553.672 1052.38 555.912 1052.23 558.502L1044.08 556.122L1038.06 545.642L1059.04 534.422L1070.82 555.122L1082.03 574.832Z" fill="white" stroke="black" stroke-miterlimit="10"/>
<path d="M911.251 171.542L909.041 173.552L909.031 173.562" stroke="black" stroke-miterlimit="10"/>
<path d="M384.258 148.372C382.548 149.492 380.628 150.482 378.558 151.292C376.868 151.942 375.198 152.452 373.548 152.812V152.792L362.898 132.182C364.238 131.232 365.708 130.352 367.318 129.582H367.328C368.078 129.212 368.858 128.882 369.648 128.562C369.738 128.532 369.838 128.492 369.928 128.462C371.248 127.962 372.568 127.552 373.878 127.222L384.258 148.372Z" fill="#FFD57A" stroke="black" stroke-linejoin="round"/>
<path d="M360.938 133.712C359.588 134.862 358.438 136.102 357.498 137.362C355.068 140.672 354.178 144.222 355.368 147.272C357.158 151.862 363.198 154.052 370.348 153.312H370.358L360.938 133.712ZM360.058 146.932C358.638 146.872 357.528 145.672 357.588 144.242C357.648 142.822 358.848 141.712 360.268 141.772C361.698 141.832 362.808 143.032 362.748 144.452C362.688 145.882 361.488 146.992 360.058 146.932Z" fill="#FFD57A" stroke="black" stroke-linejoin="round"/>
<path d="M373.553 152.792V152.812C372.463 153.042 371.413 153.212 370.373 153.312L360.953 133.712C361.563 133.182 362.223 132.682 362.913 132.182L373.563 152.792H373.553Z" fill="black" stroke="black" stroke-linejoin="round"/>
<path d="M393.36 135.102C393.5 138.792 391.15 142.872 387.13 146.262L376.57 126.692C378.46 126.402 380.27 126.332 381.97 126.432C385.76 126.662 388.97 127.842 391.01 129.842L387.42 130.192C390.06 132.582 390.83 137.702 390.83 137.702L393.36 135.102Z" fill="#FFD57A" stroke="black" stroke-linejoin="round"/>
<path d="M384.263 148.382L373.883 127.222C374.793 127.002 375.693 126.822 376.573 126.692L387.133 146.262C386.253 147.002 385.303 147.712 384.263 148.382Z" fill="black" stroke="black" stroke-linejoin="round"/>
<path d="M381.973 126.432C380.273 126.332 378.463 126.402 376.573 126.692C375.693 126.822 374.793 127.002 373.883 127.222C372.573 127.552 371.253 127.962 369.933 128.462C369.723 127.902 369.593 127.332 369.543 126.732L368.793 116.892C368.523 113.472 371.093 110.482 374.513 110.212C377.943 109.942 380.933 112.512 381.193 115.942L381.953 125.772C381.983 126.002 381.983 126.222 381.973 126.432Z" fill="#7EC6F2" stroke="black" stroke-linejoin="round"/>
<path d="M367.321 129.582C365.711 130.352 364.241 131.232 362.901 132.182C362.211 132.682 361.551 133.182 360.941 133.712C359.591 134.862 358.441 136.102 357.501 137.362L351.931 131.772C349.501 129.342 349.501 125.392 351.941 122.962C354.371 120.542 358.301 120.542 360.731 122.972L367.321 129.582Z" fill="#7EC6F2" stroke="black" stroke-linejoin="round"/>
<path d="M360.938 133.712V133.702" stroke="black" stroke-linejoin="round"/>
<path d="M399.242 129.072L393.362 135.102L390.832 137.702C390.832 137.702 390.062 132.582 387.422 130.192L391.012 129.852L399.242 129.072Z" fill="black" stroke="black" stroke-linejoin="round"/>
<path d="M362.748 144.452C362.688 145.882 361.488 146.992 360.058 146.932C358.638 146.872 357.528 145.672 357.588 144.242C357.648 142.822 358.848 141.712 360.268 141.772C361.698 141.832 362.808 143.032 362.748 144.452Z" stroke="black" stroke-linejoin="round"/>
<path d="M1221.77 341.572C1221.77 341.572 1220.47 342.382 1216.47 341.522C1214.82 341.172 1213.41 340.202 1212.32 339.192C1210.77 337.732 1209.88 336.182 1209.88 336.182L1211.9 334.882C1212.89 336.062 1213.92 336.962 1214.92 337.632C1218.38 339.992 1221.5 339.772 1221.5 339.772L1221.77 341.572Z" stroke="black" stroke-linejoin="round"/>
<path d="M1216.53 336.152C1216.53 336.152 1215.97 336.832 1214.92 337.632C1213.92 336.962 1212.89 336.062 1211.9 334.882L1209.88 336.182C1209.88 336.182 1210.77 337.732 1212.32 339.192C1211.64 339.492 1210.89 339.772 1210.06 339.962C1205.9 340.942 1205.37 336.562 1205.37 336.562C1205.23 335.082 1205.56 334.132 1205.56 334.132C1205.56 334.132 1206.16 332.212 1204.41 331.792C1202.65 331.382 1200.28 330.962 1198.77 329.262C1197.25 327.582 1196.81 324.552 1199.36 321.682C1201.93 318.822 1198.54 318.592 1198.54 318.592C1198.54 318.592 1195.35 318.372 1192.06 316.702C1188.78 315.042 1191.35 309.502 1191.35 309.502C1191.35 309.502 1192.59 307.012 1189.83 305.612C1187.06 304.202 1186.78 300.602 1186.78 300.602C1186.78 300.602 1186.71 297.772 1187.87 297.432C1189.03 297.092 1189.71 297.852 1190.99 299.672C1192.26 301.492 1192.29 300.912 1195.76 302.542C1199.23 304.162 1197.47 309.742 1197.47 309.742C1197.47 309.742 1197.64 312.902 1200.55 312.882C1203.46 312.862 1206.42 314.362 1206.42 314.362C1211.4 317.482 1207.18 321.512 1207.78 324.272C1208.39 327.032 1213.16 326.172 1216.66 329.412C1220.16 332.662 1216.53 336.152 1216.53 336.152Z" fill="#108496" stroke="black" stroke-linejoin="round"/>
<path d="M1214.92 337.632L1214.91 337.642" stroke="black" stroke-linejoin="round"/>
<path d="M1255.04 272.112C1255.58 272.132 1256.1 272.032 1256.58 271.832C1256.1 272.022 1255.58 272.112 1255.03 272.102H1255.04V272.112ZM1251.32 266.932C1251.21 267.232 1251.15 267.562 1251.13 267.892C1251.06 268.982 1251.44 270.012 1252.12 270.772H1252.13C1251.45 270.002 1251.08 268.982 1251.14 267.882C1251.16 267.552 1251.22 267.232 1251.32 266.932ZM1245.73 281.132L1249.28 275.372L1245.72 281.132H1245.73Z" stroke="black" stroke-miterlimit="10"/>
<path d="M1263.43 253.192C1263.43 253.192 1253.69 247.182 1247.79 259.302C1247.79 259.302 1249.35 271.962 1237.58 280.742C1237.58 280.742 1234.27 288.312 1243.3 293.052C1252.32 297.812 1257.82 288.842 1257.82 288.842C1257.82 288.842 1257.63 274.782 1267.53 267.512C1267.53 267.512 1272.31 259.162 1263.43 253.192ZM1259.03 268.792C1258.99 269.042 1258.93 269.292 1258.83 269.522C1258.76 269.762 1258.65 269.982 1258.51 270.192C1258.39 270.412 1258.25 270.612 1258.07 270.792C1258 270.882 1257.91 270.972 1257.82 271.052C1257.74 271.132 1257.66 271.202 1257.57 271.272C1257.56 271.272 1257.55 271.282 1257.54 271.292C1257.4 271.392 1257.26 271.492 1257.11 271.572C1257.1 271.582 1257.09 271.592 1257.08 271.592C1256.92 271.682 1256.75 271.762 1256.58 271.832C1256.1 272.032 1255.58 272.132 1255.04 272.122H1255.03L1253.72 275.492L1250.53 283.682H1250.52L1245.73 281.132H1245.72L1249.28 275.372L1251.52 271.742L1251.92 271.102L1252.12 270.782C1251.44 270.012 1251.06 268.982 1251.13 267.892C1251.15 267.562 1251.21 267.232 1251.32 266.932C1251.37 266.752 1251.44 266.572 1251.52 266.412C1251.6 266.242 1251.69 266.092 1251.79 265.942C1251.85 265.852 1251.91 265.752 1251.99 265.672C1252.03 265.612 1252.08 265.552 1252.13 265.502C1252.13 265.502 1252.13 265.498 1252.14 265.492C1252.22 265.402 1252.3 265.312 1252.39 265.232C1252.54 265.092 1252.69 264.972 1252.85 264.862C1252.91 264.812 1252.98 264.772 1253.05 264.732C1253.32 264.572 1253.6 264.442 1253.9 264.352C1254.01 264.312 1254.13 264.282 1254.25 264.252C1254.34 264.232 1254.43 264.222 1254.52 264.212C1254.79 264.162 1255.07 264.152 1255.35 264.172C1255.48 264.182 1255.61 264.192 1255.74 264.212C1255.99 264.252 1256.24 264.322 1256.47 264.412C1256.71 264.492 1256.93 264.602 1257.14 264.732C1257.35 264.862 1257.55 265.002 1257.74 265.172C1257.83 265.252 1257.91 265.332 1258 265.422C1258.09 265.512 1258.17 265.602 1258.24 265.692C1258.24 265.702 1258.24 265.702 1258.24 265.702C1258.4 265.892 1258.53 266.102 1258.64 266.312C1258.64 266.312 1258.64 266.315 1258.64 266.322C1258.96 266.932 1259.13 267.642 1259.08 268.382C1259.07 268.522 1259.05 268.662 1259.03 268.792Z" fill="#FFD57A" stroke="black" stroke-miterlimit="10"/>
<path d="M1259.07 268.392C1259.06 268.532 1259.05 268.662 1259.03 268.792C1258.98 269.042 1258.92 269.292 1258.83 269.522C1258.74 269.762 1258.63 269.982 1258.51 270.192C1258.38 270.412 1258.23 270.602 1258.07 270.792C1257.99 270.882 1257.91 270.962 1257.82 271.052C1257.74 271.122 1257.66 271.192 1257.57 271.272C1257.56 271.272 1257.55 271.282 1257.54 271.292C1257.4 271.402 1257.26 271.492 1257.11 271.572C1257.1 271.582 1257.09 271.592 1257.08 271.592C1256.92 271.682 1256.75 271.762 1256.58 271.832C1256.1 272.032 1255.58 272.132 1255.04 272.122H1255.03L1253.72 275.492L1250.52 283.682L1245.73 281.132H1245.72L1249.28 275.372L1251.52 271.742L1251.92 271.102L1252.12 270.782C1251.44 270.012 1251.06 268.982 1251.13 267.892C1251.15 267.562 1251.21 267.232 1251.32 266.932C1251.37 266.752 1251.44 266.572 1251.52 266.412C1251.6 266.242 1251.69 266.092 1251.79 265.942C1251.86 265.852 1251.92 265.762 1251.99 265.672C1252.04 265.612 1252.08 265.562 1252.13 265.502C1252.13 265.502 1252.13 265.498 1252.14 265.492C1252.22 265.402 1252.3 265.312 1252.39 265.232C1252.54 265.092 1252.69 264.972 1252.85 264.862C1252.92 264.822 1252.98 264.772 1253.05 264.732C1253.32 264.572 1253.6 264.442 1253.9 264.352C1254.01 264.312 1254.13 264.282 1254.25 264.252C1254.34 264.232 1254.43 264.212 1254.52 264.212C1254.79 264.162 1255.07 264.152 1255.35 264.172C1255.48 264.182 1255.61 264.192 1255.74 264.212C1255.99 264.262 1256.24 264.322 1256.47 264.412C1256.71 264.492 1256.93 264.602 1257.14 264.732C1257.36 264.862 1257.55 265.002 1257.74 265.172C1257.83 265.252 1257.91 265.332 1258 265.422C1258.08 265.512 1258.16 265.602 1258.24 265.692C1258.24 265.702 1258.24 265.702 1258.24 265.702C1258.39 265.892 1258.52 266.102 1258.64 266.312C1258.64 266.312 1258.64 266.315 1258.64 266.322C1258.96 266.942 1259.12 267.652 1259.07 268.392Z" fill="black" stroke="black" stroke-miterlimit="10"/>
<path d="M1252.13 270.782H1252.12" stroke="black" stroke-miterlimit="10"/>
<path d="M1252.12 270.782H1252.13L1252.4 270.322" stroke="black" stroke-miterlimit="10"/>
<path d="M1214.84 208.672C1214.45 209.942 1214.06 211.212 1213.66 212.492C1212.81 215.182 1211.96 217.882 1211.08 220.562C1210.2 223.252 1209.29 225.932 1208.38 228.622C1207.54 231.042 1206.7 233.472 1205.83 235.892C1205.79 236.012 1205.75 236.132 1205.7 236.252C1205.59 236.182 1205.48 236.102 1205.38 236.032C1203.24 234.622 1201.1 233.192 1198.97 231.752C1196.63 230.162 1194.29 228.552 1191.98 226.932C1189.66 225.302 1187.35 223.672 1185.06 222.012C1183.98 221.232 1182.91 220.452 1181.83 219.662C1179.75 218.132 1177.58 216.722 1176.23 214.452C1175.84 213.792 1175.52 213.082 1175.26 212.342C1173.38 206.702 1176.43 200.612 1182.06 198.732C1187.03 197.072 1192.33 199.232 1194.82 203.612C1194.17 198.612 1197.13 193.702 1202.09 192.052C1207.72 190.172 1213.82 193.222 1215.7 198.852V198.872C1215.94 199.612 1216.12 200.382 1216.2 201.142C1216.48 203.762 1215.58 206.202 1214.84 208.672Z" fill="#F25D82" stroke="black" stroke-miterlimit="10"/>
<path d="M269.932 606.722L248.312 628.462L230.912 613.772L211.102 597.052L224.432 586.932L231.922 594.982L231.942 595.002C231.192 596.962 231.562 599.242 233.102 600.812C233.372 601.092 233.662 601.332 233.972 601.542C233.622 602.112 233.382 602.732 233.262 603.372C233.182 603.782 233.152 604.192 233.172 604.592C233.192 605.032 233.252 605.462 233.362 605.882C233.542 606.502 233.812 607.102 234.192 607.652C234.372 607.912 234.572 608.152 234.802 608.392C234.922 608.512 235.052 608.622 235.172 608.732C235.302 608.842 235.432 608.942 235.562 609.042C236.802 609.932 238.282 610.272 239.692 610.062C240.792 609.902 241.852 609.412 242.692 608.582C243.132 608.152 243.472 607.672 243.732 607.162L245.382 609.982L246.432 611.772L251.832 606.502L249.522 605.082L247.752 603.992L247.252 603.692C247.472 603.592 247.692 603.472 247.892 603.342C247.972 603.282 248.052 603.232 248.122 603.182C248.342 603.032 248.552 602.862 248.752 602.662C249.892 601.542 250.432 600.032 250.372 598.532C250.342 597.882 250.202 597.232 249.952 596.612C249.682 595.952 249.282 595.332 248.752 594.782C248.612 594.642 248.472 594.512 248.322 594.392H248.302C247.372 593.602 246.262 593.172 245.132 593.082H245.112V593.062L249.612 588.492H249.622L269.922 606.722H269.932Z" fill="white" stroke="black" stroke-miterlimit="10"/>
<path d="M251.827 606.502L246.427 611.772L245.377 609.982L243.727 607.162C243.467 607.672 243.127 608.152 242.687 608.582C241.847 609.412 240.787 609.902 239.687 610.062C238.277 610.272 236.797 609.932 235.557 609.042C235.427 608.942 235.297 608.842 235.167 608.732C235.047 608.622 234.917 608.512 234.797 608.392C234.567 608.152 234.367 607.912 234.187 607.652C233.807 607.102 233.537 606.502 233.357 605.882C233.247 605.462 233.187 605.032 233.167 604.592C233.147 604.192 233.167 603.782 233.257 603.372C233.377 602.732 233.617 602.112 233.967 601.542C233.657 601.332 233.367 601.092 233.097 600.812C231.557 599.242 231.187 596.962 231.937 595.002L237.427 600.892L245.107 593.072H245.127C246.257 593.172 247.367 593.602 248.297 594.382H248.317C248.467 594.512 248.607 594.642 248.747 594.782C249.277 595.332 249.677 595.952 249.947 596.612C250.197 597.232 250.337 597.882 250.367 598.532C250.427 600.032 249.887 601.542 248.747 602.662C248.547 602.862 248.337 603.032 248.117 603.182C248.047 603.232 247.967 603.282 247.887 603.342C247.687 603.472 247.467 603.592 247.247 603.692L247.747 603.992L249.517 605.082L251.827 606.502Z" fill="#E686B4" stroke="black" stroke-miterlimit="10"/>
<path d="M231.953 594.962C231.953 594.962 231.953 594.992 231.953 595.002" stroke="black" stroke-miterlimit="10"/>
<path d="M247.511 547.262L234.581 558.732L214.641 576.412L224.421 586.922L231.911 594.982L231.931 595.002L237.421 600.892L245.101 593.072L249.601 588.492H249.611L256.451 581.522L256.661 581.302L271.051 566.662L247.491 547.262H247.511ZM251.871 578.252C250.751 579.002 249.421 579.182 248.131 579.432C247.461 579.562 246.791 579.682 246.121 579.812C244.691 580.062 243.261 580.332 241.831 580.572L240.971 580.712C239.831 580.902 238.671 581.092 237.531 581.272C236.231 581.472 234.921 581.662 233.611 581.852C233.551 581.852 233.481 581.872 233.421 581.882C233.421 581.802 233.421 581.742 233.441 581.682C233.501 581.102 233.561 580.512 233.621 579.942H233.631C233.701 579.192 233.781 578.462 233.861 577.732C234.011 576.292 234.191 574.842 234.371 573.402C234.541 571.962 234.751 570.512 234.941 569.082C235.041 568.402 235.141 567.732 235.231 567.052C235.431 565.742 235.551 564.412 236.251 563.262C236.461 562.922 236.711 562.612 236.991 562.322C237.131 562.182 237.271 562.052 237.411 561.922C239.541 560.122 242.741 560.182 244.801 562.162C246.741 564.022 247.031 566.942 245.631 569.122C247.751 567.642 250.691 567.802 252.631 569.662C254.831 571.782 254.901 575.272 252.791 577.482C252.721 577.562 252.651 577.632 252.571 577.692C252.351 577.902 252.121 578.082 251.871 578.252Z" fill="white" stroke="black" stroke-miterlimit="10"/>
<path d="M252.792 577.482C252.722 577.562 252.652 577.632 252.572 577.692C252.352 577.902 252.122 578.082 251.872 578.252C250.752 579.002 249.422 579.182 248.132 579.432C247.462 579.562 246.792 579.682 246.122 579.812C244.692 580.062 243.262 580.332 241.832 580.572L240.972 580.712C239.832 580.902 238.672 581.092 237.532 581.272C236.232 581.472 234.922 581.662 233.612 581.852C233.552 581.852 233.482 581.872 233.422 581.882C233.422 581.802 233.422 581.742 233.442 581.682C233.502 581.102 233.562 580.512 233.622 579.942H233.632C233.702 579.192 233.782 578.462 233.862 577.732C234.012 576.292 234.192 574.842 234.372 573.402C234.542 571.962 234.752 570.512 234.942 569.082C235.042 568.402 235.142 567.732 235.232 567.052C235.432 565.742 235.552 564.412 236.252 563.262C236.462 562.922 236.712 562.612 236.992 562.322C237.132 562.182 237.272 562.052 237.412 561.922C239.542 560.122 242.742 560.182 244.802 562.162C246.742 564.022 247.032 566.942 245.632 569.122C247.752 567.642 250.692 567.802 252.632 569.662C254.832 571.782 254.902 575.272 252.792 577.482Z" fill="#E686B4" stroke="black" stroke-miterlimit="10"/>
<path d="M1099.93 177.982L1098.25 160.092L1082.56 155.532C1088.91 151.362 1101.38 144.972 1106.25 154.942C1110.96 164.562 1104.27 173.542 1099.93 177.982Z" fill="#F25D82" stroke="black" stroke-miterlimit="10"/>
<path d="M1099.93 177.982L1099.92 177.992C1098.21 179.742 1096.86 180.792 1096.72 180.912" stroke="black" stroke-miterlimit="10"/>
<path d="M1082.56 155.532H1082.55C1080.29 157.012 1078.8 158.212 1078.73 158.272" stroke="black" stroke-miterlimit="10"/>
<path d="M1078.73 158.272V158.262" stroke="black" stroke-miterlimit="10"/>
<path d="M1096.72 180.912H1096.71L1089.84 172.272L1089.85 172.262L1095.08 167.842H1095.09L1096.72 180.912Z" fill="#F25D82" stroke="black" stroke-miterlimit="10"/>
<path d="M1090.27 162.112L1084.78 165.892L1078.59 158.1L1090.27 162.112Z" fill="#F25D82"/>
<path d="M1090.27 162.112L1090.55 162.524L1091.37 161.961L1090.43 161.639L1090.27 162.112ZM1084.78 165.892L1084.39 166.203L1084.68 166.568L1085.06 166.304L1084.78 165.892ZM1078.59 158.1L1078.75 157.627L1078.19 158.411L1078.59 158.1ZM1090.27 162.112L1089.98 161.7L1084.49 165.48L1084.78 165.892L1085.06 166.304L1090.55 162.524L1090.27 162.112ZM1084.78 165.892L1085.17 165.581L1078.98 157.789L1078.59 158.1L1078.19 158.411L1084.39 166.203L1084.78 165.892ZM1078.59 158.1L1078.42 158.573L1090.1 162.585L1090.27 162.112L1090.43 161.639L1078.75 157.627L1078.59 158.1Z" fill="black"/>
<path d="M1095.09 167.842L1094.55 163.532L1090.27 162.112" stroke="black" stroke-miterlimit="10"/>
<path d="M1099.93 178.002V177.982" stroke="black" stroke-miterlimit="10"/>
<path d="M1081.33 179.462C1081.33 179.462 1081.34 179.442 1081.35 179.442L1089.84 172.272" stroke="black" stroke-miterlimit="10"/>
<path d="M1081.31 179.482C1081.48 179.282 1084.19 176.132 1081.86 173.352C1079.51 170.562 1075.74 172.152 1075.57 172.232" stroke="black" stroke-miterlimit="10"/>
<path d="M1075.57 172.212H1075.58L1084.78 165.892" stroke="black" stroke-miterlimit="10"/>
<path d="M1081.31 179.482C1081.31 179.482 1078.86 182.462 1075.09 179.082C1071.31 175.702 1075.57 172.232 1075.57 172.232" stroke="black" stroke-miterlimit="10"/>
<path d="M812.159 595.652C811.549 597.352 809.669 598.582 808.099 598.942C805.189 599.622 800.419 599.562 800.419 599.562C800.419 599.562 790.549 599.552 788.719 594.602C787.449 591.122 789.729 589.442 791.639 588.652C792.439 588.322 793.179 588.152 793.559 588.062C793.829 588.002 794.479 587.912 795.389 587.832C796.429 587.742 797.799 587.672 799.329 587.712C801.979 587.772 805.079 588.142 807.629 589.272C808.479 589.642 809.259 590.092 809.959 590.642C811.479 591.852 812.169 593.022 812.319 594.102C812.399 594.652 812.329 595.162 812.159 595.652Z" fill="#F25D82" stroke="black" stroke-miterlimit="10"/>
<path d="M812.319 594.102C812.169 593.022 811.479 591.852 809.959 590.632C809.259 590.092 808.479 589.642 807.629 589.272C805.079 588.142 801.979 587.772 799.329 587.712V587.692C797.899 586.172 795.989 583.772 795.319 581.322C795.009 580.172 794.969 579.022 795.369 577.942C797.229 573.002 802.149 575.512 803.309 576.142C803.749 576.372 805.159 577.302 806.849 578.702H806.859C809.719 581.082 813.309 584.822 814.059 588.782C814.609 591.762 813.709 593.372 812.319 594.102Z" fill="#F25D82" stroke="black" stroke-miterlimit="10"/>
<path d="M816.922 592.832C815.372 595.382 813.662 596.002 812.172 595.652H812.162C812.332 595.162 812.402 594.652 812.322 594.102C813.712 593.372 814.612 591.762 814.062 588.782C813.312 584.822 809.722 581.082 806.862 578.712H806.852L806.862 578.692C807.132 576.632 807.762 574.512 809.092 573.162C809.432 572.822 809.812 572.522 810.252 572.292C814.922 569.842 816.912 575.012 817.372 576.242C817.812 577.492 820.252 587.332 816.922 592.832Z" fill="#F25D82" stroke="black" stroke-miterlimit="10"/>
<path d="M790.874 585.552L788.164 584.192" stroke="black" stroke-miterlimit="10"/>
<path d="M795.031 573.872L796.771 575.822" stroke="black" stroke-miterlimit="10"/>
<path d="M808.383 569.662L809.093 573.172" stroke="black" stroke-miterlimit="10"/>
<path d="M785.837 585.643C787.177 585.693 788.307 584.653 788.357 583.323C788.407 581.983 787.367 580.853 786.037 580.803C784.697 580.753 783.567 581.793 783.517 583.123C783.467 584.463 784.507 585.593 785.837 585.643Z" stroke="black" stroke-miterlimit="10"/>
<path d="M793.22 574.572C794.56 574.622 795.69 573.592 795.74 572.252C795.79 570.912 794.75 569.782 793.42 569.732C792.08 569.682 790.95 570.722 790.9 572.052C790.85 573.392 791.89 574.522 793.22 574.572Z" stroke="black" stroke-miterlimit="10"/>
<path d="M807.439 569.812C808.779 569.862 809.909 568.832 809.959 567.492C810.009 566.152 808.979 565.022 807.639 564.972C806.299 564.912 805.169 565.952 805.119 567.292C805.069 568.632 806.109 569.762 807.439 569.812Z" stroke="black" stroke-miterlimit="10"/>
<path d="M813.203 595.742C814.853 598.732 823.433 612.222 846.093 614.942" stroke="black" stroke-miterlimit="10"/>
<path d="M790.867 585.552C790.927 585.012 791.087 584.452 791.357 583.842C792.247 581.902 793.737 581.292 795.317 581.322C795.987 583.772 797.897 586.172 799.327 587.692V587.712C797.797 587.672 796.427 587.742 795.387 587.832" fill="#F25D82"/>
<path d="M790.867 585.552C790.927 585.012 791.087 584.452 791.357 583.842C792.247 581.902 793.737 581.292 795.317 581.322C795.987 583.772 797.897 586.172 799.327 587.692V587.712C797.797 587.672 796.427 587.742 795.387 587.832" stroke="black" stroke-miterlimit="10"/>
<path d="M795.387 587.832V587.812L790.867 585.552" fill="#F25D82"/>
<path d="M795.387 587.832V587.812L790.867 585.552" stroke="black" stroke-linejoin="round"/>
<path d="M791.641 588.642C791.081 587.742 790.741 586.712 790.871 585.552" stroke="black" stroke-miterlimit="10"/>
<path d="M795.33 581.322H795.32" stroke="black" stroke-miterlimit="10"/>
<path d="M813.492 623.472C814.202 608.362 826.592 608.752 826.592 608.752C827.022 622.022 813.492 623.472 813.492 623.472Z" fill="#108496" stroke="black" stroke-miterlimit="10"/>
<path d="M220.503 455.722L220.013 471.162L205.203 467.072L206.293 451.952L220.503 455.722Z" fill="#7EC6F2" stroke="black" stroke-miterlimit="10"/>
<path d="M234.14 459.342L220.5 455.722L220.94 441.332L233.08 445.202L234.14 459.342Z" fill="#7EC6F2" stroke="black" stroke-miterlimit="10"/>
<path d="M220.939 441.332L220.499 455.722L206.289 451.952L207.359 437.002L220.939 441.332Z" stroke="black" stroke-miterlimit="10"/>
<path d="M220.008 471.162L220.498 455.722L234.138 459.342L235.338 475.402L220.008 471.162Z" stroke="black" stroke-miterlimit="10"/>
<path d="M234.151 459.342H234.141" stroke="black" stroke-miterlimit="10"/>
<path d="M1040.29 92.3018L1039.12 97.4518V97.4618" stroke="black" stroke-miterlimit="10"/>
<path d="M488.69 650.402L486.7 640.002L485.72 634.872L460.39 644.102L456.32 658.482L452.85 670.762H452.84L448.82 684.982L489.57 655.012L488.69 650.402ZM462.76 666.272C461.78 666.442 460.85 665.792 460.67 664.812C460.5 663.832 461.15 662.902 462.13 662.722C463.11 662.552 464.04 663.202 464.22 664.182C464.39 665.162 463.74 666.092 462.76 666.272ZM470.17 652.702C469.19 652.882 468.25 652.222 468.08 651.252C467.9 650.272 468.55 649.332 469.53 649.162C470.51 648.982 471.45 649.632 471.62 650.612C471.8 651.592 471.15 652.532 470.17 652.702Z" fill="#E686B4" stroke="black" stroke-miterlimit="10"/>
<path d="M464.218 664.182C464.388 665.162 463.738 666.092 462.758 666.272C461.778 666.442 460.848 665.792 460.668 664.812C460.498 663.832 461.148 662.902 462.128 662.722C463.108 662.552 464.038 663.202 464.218 664.182Z" stroke="black" stroke-miterlimit="10"/>
<path d="M470.167 652.702C469.187 652.882 468.247 652.222 468.077 651.252C467.897 650.272 468.547 649.332 469.527 649.162C470.507 648.982 471.447 649.632 471.617 650.612C471.797 651.592 471.147 652.532 470.167 652.702Z" stroke="black" stroke-miterlimit="10"/>
<path d="M486.713 640.002L480.583 643.572L480.133 648.192" stroke="black" stroke-miterlimit="10"/>
<path d="M488.972 650.232L480.222 655.632L475.282 655.332L468.852 660.232" stroke="black" stroke-miterlimit="10"/>
<path d="M458.342 667.382L452.852 670.762" stroke="black" stroke-miterlimit="10"/>
<path d="M465.08 653.352L456.32 658.482" stroke="black" stroke-miterlimit="10"/>
<path d="M462.758 666.272C461.778 666.442 460.848 665.792 460.668 664.812C460.498 663.832 461.148 662.902 462.128 662.722C463.108 662.552 464.038 663.202 464.218 664.182C464.388 665.162 463.738 666.092 462.758 666.272Z" stroke="black" stroke-miterlimit="10"/>
<path d="M470.167 652.702C469.187 652.882 468.247 652.222 468.077 651.252C467.897 650.272 468.547 649.332 469.527 649.162C470.507 648.982 471.447 649.632 471.617 650.612C471.797 651.592 471.147 652.532 470.167 652.702Z" stroke="black" stroke-miterlimit="10"/>
<path d="M90.3391 287.942L67.1691 317.022L53.5391 300.242L73.7591 270.862L90.3391 287.942Z" fill="#7EC6F2" stroke="black" stroke-miterlimit="10"/>
<path d="M25.661 593.222C25.591 593.782 25.401 594.262 25.111 594.692C25.101 594.692 25.101 594.702 25.101 594.702C24.091 596.182 21.961 596.882 20.341 596.842C17.351 596.752 12.761 595.482 12.761 595.482C12.761 595.482 3.21096 592.952 2.71096 587.702C2.36096 583.992 5.02096 582.952 7.07096 582.682C7.92096 582.572 8.67097 582.592 9.05097 582.612C9.33097 582.622 9.98096 582.692 10.891 582.852C11.911 583.022 13.261 583.302 14.721 583.732H14.731C17.271 584.472 20.181 585.622 22.361 587.352C23.081 587.932 23.721 588.562 24.261 589.272C25.411 590.832 25.791 592.152 25.661 593.222Z" fill="#F25D82" stroke="black" stroke-miterlimit="10"/>
<path d="M28.679 588.522C28.469 591.552 27.189 592.882 25.659 593.222C25.789 592.152 25.409 590.832 24.259 589.272C23.719 588.562 23.079 587.932 22.359 587.352C20.179 585.622 17.269 584.472 14.729 583.732H14.719C13.739 581.882 12.489 579.072 12.469 576.532C12.459 575.352 12.709 574.222 13.379 573.282C13.979 572.442 14.619 571.902 15.259 571.592C17.919 570.322 20.729 572.842 21.519 573.562C21.879 573.892 23.009 575.162 24.289 576.952C26.449 579.972 28.969 584.492 28.679 588.522Z" fill="#F25D82" stroke="black" stroke-miterlimit="10"/>
<path d="M30.4291 593.172C28.2891 595.252 26.4791 595.402 25.1091 594.692C25.3991 594.262 25.5891 593.782 25.6591 593.222C27.1891 592.882 28.4691 591.552 28.6791 588.522C28.9691 584.492 26.4491 579.972 24.2891 576.952C25.0791 575.022 26.2191 573.112 27.8591 572.152C28.2691 571.902 28.7191 571.712 29.1991 571.602C34.3391 570.432 34.9591 575.932 35.0691 577.242C35.1991 578.552 35.0391 588.702 30.4191 593.172H30.4291Z" fill="#F25D82" stroke="black" stroke-miterlimit="10"/>
<path d="M7.11031 579.502L4.82031 577.492" stroke="black" stroke-miterlimit="10"/>
<path d="M14.0781 569.262L15.2481 571.602" stroke="black" stroke-miterlimit="10"/>
<path d="M28.0594 568.592L27.8594 572.152" stroke="black" stroke-miterlimit="10"/>
<path d="M2.82173 578.402C4.16173 578.452 5.29173 577.412 5.34173 576.082C5.39173 574.742 4.35173 573.612 3.02173 573.562C1.68173 573.512 0.55173 574.542 0.50173 575.882C0.45173 577.222 1.49173 578.352 2.82173 578.402Z" stroke="black" stroke-miterlimit="10"/>
<path d="M12.767 569.582C14.107 569.632 15.237 568.592 15.287 567.262C15.337 565.922 14.297 564.792 12.967 564.742C11.627 564.692 10.497 565.732 10.447 567.062C10.397 568.402 11.437 569.532 12.767 569.582Z" stroke="black" stroke-miterlimit="10"/>
<path d="M27.728 568.592C29.068 568.642 30.188 567.602 30.248 566.272C30.298 564.932 29.258 563.802 27.928 563.752C26.588 563.702 25.458 564.732 25.408 566.072C25.358 567.412 26.398 568.542 27.728 568.592Z" stroke="black" stroke-miterlimit="10"/>
<path d="M26.1016 595.032C26.9316 598.352 31.8116 613.572 53.0116 621.972" stroke="black" stroke-miterlimit="10"/>
<path d="M14.7194 583.722C13.2594 583.302 11.9094 583.022 10.8894 582.852V582.832L7.10938 579.502C7.29936 578.992 7.58938 578.482 8.00938 577.972C9.35938 576.332 10.9594 576.112 12.4694 576.532C12.4894 579.072 13.7394 581.882 14.7194 583.722Z" fill="#F25D82" stroke="black" stroke-miterlimit="10"/>
<path d="M10.8938 582.832V582.852C9.98376 582.692 9.33377 582.622 9.05377 582.612C8.67377 582.592 7.92376 582.572 7.07376 582.682C6.74376 581.672 6.69376 580.592 7.11376 579.502L10.8938 582.832Z" fill="#F25D82" stroke="black" stroke-miterlimit="10"/>
<path d="M12.4887 576.532H12.4688" stroke="black" stroke-miterlimit="10"/>
<path d="M35.7203 611.022C32.7703 623.962 19.3203 621.922 19.3203 621.922C23.8503 607.502 35.7203 611.022 35.7203 611.022Z" fill="#108496" stroke="black" stroke-miterlimit="10"/>
<path d="M1150.19 597.892L1121.04 636.702L1104.18 615.742L1129.13 585.902L1150.19 597.892Z" fill="white" stroke="black" stroke-miterlimit="10"/>
<path d="M706.602 585.642L695.622 604.412C694.592 604.222 693.552 603.982 692.492 603.652L704.782 583.972C705.432 584.522 706.032 585.072 706.602 585.642Z" fill="black" stroke="black" stroke-linejoin="round"/>
<path d="M709.727 589.562C708.897 588.222 707.847 586.902 706.597 585.642L695.617 604.412H695.627C702.697 605.732 708.887 604.032 711.047 599.612C712.487 596.662 711.887 593.062 709.727 589.562ZM706.397 598.892C704.977 598.832 703.867 597.632 703.917 596.202C703.977 594.782 705.177 593.672 706.607 593.732C708.037 593.792 709.137 594.992 709.087 596.412C709.027 597.842 707.817 598.952 706.397 598.892Z" fill="#FFD57A" stroke="black" stroke-linejoin="round"/>
<path d="M694.227 578.122V578.142L682.157 598.372C681.177 597.612 680.297 596.832 679.477 596.022L691.587 577.382C692.457 577.582 693.337 577.832 694.227 578.122Z" fill="black" stroke="black" stroke-linejoin="round"/>
<path d="M700.137 568.252L698.587 578.002C698.497 578.592 698.317 579.152 698.067 579.672C696.787 579.072 695.507 578.552 694.227 578.122C693.337 577.832 692.457 577.582 691.587 577.372C689.737 576.932 687.927 576.712 686.227 576.682C686.227 576.462 686.257 576.262 686.297 576.032L687.857 566.292C688.397 562.902 691.587 560.582 694.977 561.132C698.367 561.672 700.687 564.862 700.137 568.252Z" fill="#7EC6F2" stroke="black" stroke-linejoin="round"/>
<path d="M686.227 576.692V576.682" stroke="black" stroke-linejoin="round"/>
<path d="M704.784 583.962L692.494 603.652C690.884 603.162 689.244 602.522 687.614 601.732C685.614 600.752 683.784 599.612 682.164 598.372L694.234 578.142V578.122C695.514 578.552 696.794 579.072 698.074 579.672C698.164 579.712 698.254 579.762 698.344 579.802C699.104 580.182 699.854 580.572 700.564 581.002C700.564 581.002 700.574 581.002 700.574 581.012C702.114 581.902 703.514 582.902 704.774 583.962H704.784Z" fill="#FFD57A" stroke="black" stroke-linejoin="round"/>
<path d="M715.74 584.442L709.73 589.562C708.9 588.222 707.85 586.902 706.6 585.642C706.03 585.072 705.43 584.522 704.78 583.972L704.77 583.962C703.51 582.902 702.11 581.902 700.57 581.012H700.58L707.68 574.952C710.3 572.732 714.22 573.042 716.45 575.662C718.68 578.282 718.36 582.212 715.74 584.442Z" fill="#7EC6F2" stroke="black" stroke-linejoin="round"/>
<path d="M691.589 577.372L679.479 596.022C675.739 592.312 673.729 588.062 674.169 584.392L676.489 587.182C676.489 587.182 677.669 582.142 680.499 579.982L676.939 579.352C679.139 577.512 682.439 576.602 686.229 576.682C687.929 576.712 689.739 576.932 691.589 577.372Z" fill="#FFD57A" stroke="black" stroke-linejoin="round"/>
<path d="M680.497 579.982C677.667 582.142 676.487 587.182 676.487 587.182L674.167 584.392L668.797 577.912L676.937 579.352L680.497 579.982Z" fill="#7EC6F2" stroke="black" stroke-linejoin="round"/>
<path d="M709.095 596.412C709.035 597.842 707.825 598.952 706.405 598.892C704.985 598.832 703.873 597.632 703.923 596.202C703.983 594.782 705.185 593.672 706.615 593.732C708.045 593.792 709.145 594.992 709.095 596.412Z" stroke="black" stroke-linejoin="round"/>
<path d="M1156.04 507.482L1157.77 522.152L1159.27 534.842L1161.02 549.662L1184.57 562.782L1189.95 547.932L1191.55 543.512L1156.04 507.482ZM1166.19 531.662C1165.2 531.622 1164.42 530.782 1164.47 529.792C1164.51 528.802 1165.34 528.022 1166.34 528.062C1167.33 528.102 1168.1 528.942 1168.06 529.942C1168.02 530.932 1167.18 531.702 1166.19 531.662ZM1171.35 546.212C1170.35 546.172 1169.58 545.332 1169.62 544.342C1169.66 543.352 1170.5 542.572 1171.49 542.612C1172.49 542.652 1173.26 543.492 1173.22 544.492C1173.18 545.482 1172.34 546.252 1171.35 546.212Z" fill="#E686B4" stroke="black" stroke-miterlimit="10"/>
<path d="M1168.06 529.942C1168.02 530.932 1167.18 531.702 1166.19 531.662C1165.2 531.622 1164.42 530.782 1164.47 529.792C1164.51 528.802 1165.34 528.022 1166.34 528.062C1167.33 528.102 1168.1 528.942 1168.06 529.942Z" stroke="black" stroke-miterlimit="10"/>
<path d="M1173.22 544.492C1173.18 545.482 1172.34 546.252 1171.35 546.212C1170.35 546.172 1169.58 545.332 1169.62 544.342C1169.66 543.352 1170.5 542.572 1171.49 542.612C1172.49 542.652 1173.26 543.492 1173.22 544.492Z" stroke="black" stroke-miterlimit="10"/>
<path d="M1186.34 557.882L1180.86 553.392L1181.15 548.742" stroke="black" stroke-miterlimit="10"/>
<path d="M1190.2 548.142L1182.41 541.432L1177.49 540.942L1171.91 535.092" stroke="black" stroke-miterlimit="10"/>
<path d="M1162.67 526.362L1157.77 522.152" stroke="black" stroke-miterlimit="10"/>
<path d="M1167.09 541.282L1159.26 534.832" stroke="black" stroke-miterlimit="10"/>
<path d="M1168.06 529.942C1168.02 530.932 1167.18 531.702 1166.19 531.662C1165.2 531.622 1164.42 530.782 1164.47 529.792C1164.51 528.802 1165.34 528.022 1166.34 528.062C1167.33 528.102 1168.1 528.942 1168.06 529.942Z" stroke="black" stroke-miterlimit="10"/>
<path d="M1173.22 544.492C1173.18 545.482 1172.34 546.252 1171.35 546.212C1170.35 546.172 1169.58 545.332 1169.62 544.342C1169.66 543.352 1170.5 542.572 1171.49 542.612C1172.49 542.652 1173.26 543.492 1173.22 544.492Z" stroke="black" stroke-miterlimit="10"/>
<path d="M537.979 120.072L530.359 111.902" stroke="black" stroke-linejoin="round"/>
<path d="M306.594 655.323V655.312" stroke="black" stroke-miterlimit="10"/>
<path d="M907.568 30.7116H907.558L902.658 19.1416L877.988 22.5716L865.228 24.3516L856.808 25.5216L851.758 26.2216L853.768 32.2016L855.338 36.8816L857.228 42.5116L861.958 56.6016L886.978 52.2316L897.018 50.4816L914.648 47.4016L907.568 30.7116ZM885.608 44.4116L865.988 39.5716L878.938 29.4216L899.418 34.1516L885.608 44.4116Z" fill="white" stroke="black" stroke-miterlimit="10"/>
<path d="M899.422 34.1519L885.612 44.4119L865.992 39.5719L878.942 29.4219L899.422 34.1519Z" fill="#E686B4" stroke="black" stroke-miterlimit="10"/>
<path d="M923.998 35.0019L919.918 48.9419L913.168 72.0219L890.898 67.3019L897.018 50.4819L914.648 47.4019L907.568 30.7119H907.578L923.998 35.0019Z" fill="#7EC6F2" stroke="black" stroke-miterlimit="10"/>
<path d="M872.708 14.8515L865.227 24.3515L856.807 25.5215C857.037 22.9315 856.218 20.5414 854.348 19.0814C851.018 16.4814 845.638 17.8415 842.318 22.1115C839.008 26.3715 839.018 31.9315 842.348 34.5115C845.488 36.9515 850.428 35.8915 853.768 32.2015L855.338 36.8815L843.286 52.1615L824.938 37.2915L838.917 19.4515L853.607 0.691406L872.708 14.8515Z" fill="white" stroke="black" stroke-miterlimit="10"/>
<path d="M856.809 25.5118L851.759 26.2218L853.769 32.2018C850.429 35.8918 845.489 36.9518 842.349 34.5118C839.019 31.9318 839.009 26.3718 842.319 22.1118C845.639 17.8418 851.019 16.4818 854.349 19.0818C856.219 20.5418 857.039 22.9318 856.809 25.5118Z" fill="#E686B4" stroke="black" stroke-miterlimit="10"/>
<path d="M853.783 32.1914L853.773 32.2014" stroke="black" stroke-miterlimit="10"/>
<path d="M837.69 102.782L837.68 102.792" stroke="black" stroke-linejoin="round"/>
<path d="M850.348 81.462C842.538 79.972 834.818 84.822 832.758 92.502C831.748 96.262 832.238 100.052 833.838 103.252C834.168 103.942 833.978 104.762 833.358 105.192H833.348C832.998 105.452 832.618 105.742 832.188 106.042V106.062L832.038 106.162C830.348 107.412 828.568 108.682 826.758 110.002C824.068 111.972 821.268 114.002 818.408 116.082H818.398C804.748 126.002 793.078 134.272 793.078 134.272C793.078 134.272 791.808 135.222 791.878 136.402C791.938 137.592 792.858 138.702 792.858 138.702C792.858 138.702 792.868 138.712 792.888 138.742C793.068 138.982 793.938 140.002 795.068 139.992C796.348 139.982 797.198 139.502 798.178 138.802C799.158 138.092 801.088 136.772 801.088 136.772L811.748 150.062L822.578 141.872L812.288 128.382L818.748 123.642L821.788 121.362L831.148 114.422L837.798 109.542C838.298 109.172 838.978 109.132 839.508 109.452C840.948 110.332 842.558 110.992 844.308 111.362C852.258 113.062 860.228 108.142 862.258 100.272C864.468 91.722 859.018 83.112 850.348 81.462ZM847.178 104.222C842.888 104.042 839.548 100.422 839.728 96.142C839.898 91.852 843.518 88.512 847.808 88.692C852.088 88.862 855.428 92.482 855.258 96.772C855.078 101.062 851.458 104.392 847.178 104.222Z" fill="#FFD57A" stroke="black" stroke-linejoin="round"/>
<path d="M812.219 133.142L818.299 141.072" stroke="black" stroke-linejoin="round"/>
<path d="M809.195 135.272L815.045 143.282" stroke="black" stroke-linejoin="round"/>
<path d="M806.016 137.632L811.996 145.562" stroke="black" stroke-linejoin="round"/>
</g>
<defs>
<clipPath id="clip0_4051_4256">
<rect width="1270" height="687" fill="white"/>
</clipPath>
</defs>
</svg>
