<svg width="1257" height="686" viewBox="0 0 1257 686" fill="none" xmlns="http://www.w3.org/2000/svg">
<path d="M698.526 672.04C694.506 673.56 690.026 671.54 688.506 667.52C686.986 663.51 689.006 659.03 693.016 657.51C697.026 655.98 701.516 658.01 703.036 662.02C704.556 666.03 702.536 670.52 698.526 672.04Z" fill="white"/>
<path d="M1237.63 466.188L1230.83 456.248H1230.81L1218.66 458.098H1218.65L1218.63 458.138L1228.75 477.308L1244.92 476.848L1237.63 466.188ZM1228.66 462.928C1228.7 461.818 1229.64 460.948 1230.75 460.998C1231.87 461.038 1232.73 461.978 1232.68 463.088C1232.64 464.208 1231.7 465.068 1230.59 465.028C1229.48 464.978 1228.61 464.038 1228.66 462.928ZM1230.83 474.948C1229.72 474.908 1228.85 473.968 1228.9 472.858C1228.94 471.748 1229.88 470.878 1230.99 470.928C1232.11 470.968 1232.97 471.908 1232.93 473.018C1232.88 474.138 1231.94 474.998 1230.83 474.948Z" fill="white" stroke="black" stroke-miterlimit="10" stroke-linejoin="round"/>
<path d="M1228.46 443.968L1218.66 458.098L1230.81 456.258H1230.83L1244.37 447.698L1228.46 443.968ZM1230.23 452.848C1229.12 452.798 1228.26 451.868 1228.3 450.748C1228.35 449.638 1229.29 448.778 1230.4 448.818C1231.51 448.868 1232.38 449.808 1232.33 450.918C1232.29 452.028 1231.35 452.898 1230.23 452.848Z" fill="white" stroke="black" stroke-miterlimit="10" stroke-linejoin="round"/>
<path d="M1250.91 457.228L1244.38 447.698L1230.84 456.248L1237.64 466.188L1244.93 476.848L1256.45 465.308L1250.91 457.228ZM1243.72 464.038C1243.05 464.018 1242.46 463.658 1242.12 463.128C1241.89 462.788 1241.77 462.388 1241.79 461.948C1241.83 460.828 1242.77 459.968 1243.88 460.008C1244.56 460.038 1245.15 460.398 1245.49 460.938C1245.71 461.268 1245.84 461.678 1245.82 462.108C1245.77 463.218 1244.83 464.088 1243.72 464.038Z" fill="white" stroke="black" stroke-miterlimit="10" stroke-linejoin="round"/>
<path d="M1245.81 462.108C1245.76 463.218 1244.82 464.088 1243.71 464.038C1243.04 464.018 1242.45 463.658 1242.11 463.128C1241.88 462.788 1241.76 462.388 1241.78 461.948C1241.82 460.828 1242.76 459.968 1243.87 460.008C1244.55 460.038 1245.14 460.398 1245.48 460.938C1245.7 461.268 1245.83 461.678 1245.81 462.108Z" fill="black" stroke="black" stroke-miterlimit="10"/>
<path d="M1232.69 463.088C1232.65 464.208 1231.71 465.068 1230.6 465.028C1229.49 464.978 1228.62 464.038 1228.67 462.928C1228.71 461.818 1229.65 460.948 1230.76 460.998C1231.88 461.038 1232.74 461.978 1232.69 463.088Z" fill="black" stroke="black" stroke-miterlimit="10"/>
<path d="M1232.94 473.018C1232.89 474.138 1231.95 474.998 1230.84 474.948C1229.73 474.908 1228.86 473.968 1228.91 472.858C1228.95 471.748 1229.89 470.878 1231 470.928C1232.12 470.968 1232.98 471.908 1232.94 473.018Z" fill="black" stroke="black" stroke-miterlimit="10"/>
<path d="M1232.34 450.918C1232.3 452.028 1231.36 452.898 1230.24 452.848C1229.13 452.798 1228.27 451.868 1228.31 450.748C1228.36 449.638 1229.3 448.778 1230.41 448.818C1231.52 448.868 1232.39 449.808 1232.34 450.918Z" fill="black" stroke="black" stroke-miterlimit="10" stroke-linejoin="round"/>
<path d="M390.496 64.5785L370.286 77.2685L361.016 69.5285L379.116 58.9785L390.496 64.5785Z" fill="white" stroke="black" stroke-miterlimit="10"/>
<path d="M19.3133 280.856L26.1133 270.916H26.1334L38.2833 272.766H38.2933L38.3133 272.806L28.1933 291.976L12.0234 291.516L19.3133 280.856ZM28.2833 277.596C28.2433 276.486 27.3033 275.616 26.1933 275.666C25.0733 275.706 24.2134 276.646 24.2634 277.756C24.3034 278.876 25.2433 279.736 26.3533 279.696C27.4633 279.646 28.3333 278.706 28.2833 277.596ZM26.1133 289.616C27.2233 289.576 28.0933 288.636 28.0433 287.526C28.0033 286.416 27.0633 285.546 25.9533 285.596C24.8333 285.636 23.9734 286.576 24.0134 287.686C24.0634 288.806 25.0033 289.666 26.1133 289.616Z" fill="white" stroke="black" stroke-miterlimit="10" stroke-linejoin="round"/>
<path d="M28.4803 258.636L38.2802 272.766L26.1303 270.926H26.1103L12.5703 262.366L28.4803 258.636ZM26.7103 267.516C27.8203 267.466 28.6804 266.536 28.6404 265.416C28.5904 264.306 27.6503 263.446 26.5403 263.486C25.4303 263.536 24.5603 264.476 24.6103 265.586C24.6503 266.696 25.5903 267.566 26.7103 267.516Z" fill="white" stroke="black" stroke-miterlimit="10" stroke-linejoin="round"/>
<path d="M6.03992 271.897L12.5699 262.367L26.11 270.917L19.3099 280.857L12.02 291.517L0.5 279.977L6.03992 271.897ZM13.23 278.707C13.9 278.687 14.4899 278.327 14.8299 277.797C15.0599 277.457 15.1799 277.057 15.1599 276.617C15.1199 275.497 14.1799 274.637 13.0699 274.677C12.3899 274.707 11.8 275.067 11.46 275.607C11.24 275.937 11.11 276.347 11.13 276.777C11.18 277.887 12.12 278.757 13.23 278.707Z" fill="white" stroke="black" stroke-miterlimit="10" stroke-linejoin="round"/>
<path d="M24.6075 265.585C24.6475 266.695 25.5874 267.565 26.7074 267.515C27.8174 267.465 28.6775 266.535 28.6375 265.415C28.5875 264.305 27.6474 263.445 26.5374 263.485C25.4274 263.535 24.5575 264.475 24.6075 265.585Z" fill="black" stroke="black" stroke-miterlimit="10" stroke-linejoin="round"/>
<path d="M752.593 35.6124L745.656 43.9144L723.044 70.9771L713.656 47.3312L734.387 26.4673L739.954 20.8594L752.593 35.6124Z" fill="white"/>
<path d="M752.593 35.6124L745.656 43.9144L723.044 70.9771L713.656 47.3312L734.387 26.4673L739.954 20.8594L752.593 35.6124Z" fill="white"/>
<path d="M752.593 35.6124L745.656 43.9144L723.044 70.9771L713.656 47.3312L734.387 26.4673L739.954 20.8594L752.593 35.6124Z" stroke="black" stroke-miterlimit="10"/>
<path d="M752.593 35.6124L745.656 43.9144L723.044 70.9771L713.656 47.3312L734.387 26.4673L739.954 20.8594L752.593 35.6124Z" stroke="black" stroke-miterlimit="10"/>
<path d="M782.114 28.0337L779.008 52.3445L745.653 43.9133L752.59 35.6113L739.951 20.8583L734.383 26.4662L736.612 15.2471L782.114 28.0337Z" fill="white"/>
<path d="M782.114 28.0337L779.008 52.3445L745.653 43.9133L752.59 35.6113L739.951 20.8583L734.383 26.4662L736.612 15.2471L782.114 28.0337Z" fill="white"/>
<path d="M782.114 28.0337L779.008 52.3445L745.653 43.9133L752.59 35.6113L739.951 20.8583L734.383 26.4662L736.612 15.2471L782.114 28.0337Z" stroke="black" stroke-miterlimit="10"/>
<path d="M782.114 28.0337L779.008 52.3445L745.653 43.9133L752.59 35.6113L739.951 20.8583L734.383 26.4662L736.612 15.2471L782.114 28.0337Z" stroke="black" stroke-miterlimit="10"/>
<path d="M940.368 144.628C931.338 136.408 919.098 135.148 913.028 141.818C906.958 148.488 909.348 160.558 918.378 168.778C926.388 176.068 936.928 177.888 943.448 173.538H943.458C944.288 172.978 945.038 172.338 945.728 171.588C951.798 164.918 949.398 152.848 940.368 144.628ZM941.018 167.298C936.858 171.858 928.208 170.758 921.698 164.828C915.178 158.898 913.268 150.388 917.428 145.828C921.588 141.258 930.228 142.368 936.748 148.298C943.258 154.228 945.168 162.728 941.018 167.298Z" fill="#FFD57A" stroke="black" stroke-miterlimit="10"/>
<path d="M941.018 167.298C936.858 171.858 928.208 170.758 921.698 164.828C915.178 158.898 913.268 150.388 917.428 145.828C921.588 141.258 930.228 142.368 936.748 148.298C943.258 154.228 945.168 162.728 941.018 167.298Z" stroke="black" stroke-miterlimit="10"/>
<path d="M941.018 167.298C936.858 171.858 928.208 170.758 921.698 164.828C915.178 158.898 913.268 150.388 917.428 145.828C921.588 141.258 930.228 142.368 936.748 148.298C943.258 154.228 945.168 162.728 941.018 167.298Z" stroke="black" stroke-miterlimit="10"/>
<path d="M924.852 146.198L930.542 156.848L926.752 160.238" stroke="black" stroke-miterlimit="10"/>
<path d="M930.555 144.258H930.565L930.575 144.268" stroke="black" stroke-miterlimit="10"/>
<path d="M943.441 173.538L939.621 177.018C933.131 181.628 922.381 179.868 914.241 172.468C905.211 164.248 902.811 152.178 908.891 145.508L912.961 141.758L913.021 141.818C906.951 148.488 909.341 160.558 918.371 168.778C926.381 176.068 936.921 177.888 943.441 173.538Z" fill="#FFD57A" stroke="black" stroke-miterlimit="10"/>
<path d="M169.734 449.308C170.284 449.318 170.804 449.218 171.284 449.018C170.804 449.208 170.284 449.298 169.734 449.288V449.308ZM167.094 442.418C166.734 442.748 166.444 443.148 166.224 443.598C166.444 443.158 166.744 442.758 167.094 442.418ZM166.074 443.948C165.944 444.308 165.864 444.678 165.834 445.078C165.764 446.168 166.144 447.198 166.814 447.958L160.414 458.318H160.424L166.824 447.968H166.834C166.154 447.198 165.774 446.178 165.844 445.078C165.864 444.688 165.954 444.318 166.074 443.958V443.948Z" stroke="black" stroke-miterlimit="10"/>
<path d="M178.138 430.378C178.138 430.378 168.398 424.368 162.488 436.488C162.488 436.488 164.048 449.148 152.288 457.928C152.288 457.928 148.978 465.498 158.008 470.238C167.018 474.998 172.528 466.028 172.528 466.028C172.528 466.028 172.338 451.968 182.238 444.698C182.238 444.698 187.018 436.348 178.138 430.378ZM173.738 445.978C173.618 446.748 173.278 447.438 172.778 447.978C172.708 448.068 172.618 448.158 172.528 448.238C172.448 448.318 172.348 448.398 172.258 448.468C172.148 448.548 172.028 448.638 171.898 448.708C171.828 448.758 171.758 448.798 171.678 448.838C171.548 448.908 171.418 448.968 171.288 449.018C170.808 449.218 170.288 449.318 169.738 449.308H169.728L168.418 452.678L165.238 460.868H165.228L160.428 458.318H160.418L166.818 447.958C166.148 447.198 165.768 446.168 165.838 445.078C165.868 444.678 165.948 444.308 166.078 443.948C166.118 443.828 166.168 443.708 166.228 443.598C166.448 443.148 166.738 442.748 167.098 442.418C167.238 442.278 167.398 442.158 167.558 442.048C167.618 441.998 167.688 441.958 167.758 441.918C167.968 441.788 168.198 441.678 168.428 441.598C168.518 441.558 168.598 441.528 168.688 441.508C169.128 441.378 169.588 441.328 170.058 441.358C170.248 441.368 170.448 441.398 170.628 441.438H170.648C170.808 441.478 170.958 441.518 171.108 441.578C171.178 441.598 171.238 441.618 171.298 441.648C171.408 441.688 171.508 441.738 171.608 441.788C171.678 441.808 171.738 441.848 171.798 441.888C172.148 442.088 172.458 442.348 172.728 442.638C172.798 442.708 172.878 442.798 172.938 442.888C173.248 443.268 173.478 443.708 173.618 444.188C173.758 444.618 173.818 445.088 173.788 445.568C173.788 445.708 173.758 445.848 173.738 445.978Z" fill="#FFD57A" stroke="black" stroke-miterlimit="10"/>
<path d="M173.774 445.588C173.764 445.718 173.754 445.848 173.734 445.978C173.604 446.738 173.264 447.428 172.774 447.978C172.694 448.068 172.614 448.148 172.524 448.238C172.444 448.308 172.354 448.388 172.254 448.468C172.144 448.548 172.024 448.638 171.894 448.708C171.824 448.758 171.754 448.798 171.674 448.838C171.544 448.908 171.414 448.968 171.284 449.018C170.804 449.218 170.284 449.318 169.734 449.308H169.724L168.414 452.678L165.224 460.868L160.424 458.318H160.414L166.814 447.958C166.144 447.198 165.764 446.168 165.834 445.078C165.864 444.678 165.944 444.308 166.074 443.948C166.114 443.828 166.164 443.708 166.224 443.598C166.444 443.148 166.734 442.748 167.094 442.418C167.234 442.278 167.394 442.158 167.554 442.048C167.614 442.008 167.684 441.958 167.754 441.918C167.964 441.788 168.194 441.678 168.424 441.598C168.504 441.558 168.594 441.538 168.684 441.508C169.124 441.378 169.584 441.328 170.054 441.358C170.254 441.368 170.444 441.398 170.624 441.438H170.644C170.804 441.478 170.954 441.518 171.104 441.578C171.174 441.598 171.234 441.618 171.294 441.648C171.404 441.688 171.504 441.728 171.604 441.788C171.674 441.818 171.734 441.858 171.794 441.888C172.144 442.088 172.454 442.348 172.724 442.638C172.794 442.718 172.864 442.798 172.934 442.888C173.234 443.278 173.464 443.718 173.614 444.188C173.734 444.628 173.794 445.098 173.764 445.578H173.774V445.588Z" fill="black" stroke="black" stroke-miterlimit="10"/>
<path d="M166.838 447.968H166.828" stroke="black" stroke-miterlimit="10"/>
<path d="M167.108 447.508L166.838 447.968H166.828" stroke="black" stroke-miterlimit="10"/>
<path d="M238.822 164.008L237.682 176.698L224.102 180.798L224.682 166.688L238.822 164.008Z" fill="#7EC6F2" stroke="black" stroke-miterlimit="10"/>
<path d="M225.282 152.008L224.682 166.688L209.502 169.568H209.492L210.282 154.228L225.282 152.008Z" fill="#7EC6F2" stroke="black" stroke-miterlimit="10"/>
<path d="M224.688 166.688L224.106 180.798L208.688 185.448L209.496 169.568H209.507L224.688 166.688Z" fill="white" stroke="black" stroke-miterlimit="10"/>
<path d="M240.106 149.808L238.826 164.008L224.688 166.688L225.286 152.008L240.106 149.808Z" fill="white" stroke="black" stroke-miterlimit="10"/>
<path d="M224.102 180.808V180.798" stroke="black" stroke-miterlimit="10"/>
<path d="M1151.67 212.358L1154.89 239.708L1156.63 254.538L1180.19 267.658L1181.97 262.758L1185.58 252.808L1187.18 248.388L1151.67 212.358ZM1161.82 236.528C1160.82 236.488 1160.05 235.658 1160.09 234.658C1160.13 233.668 1160.97 232.898 1161.96 232.938C1162.96 232.978 1163.73 233.808 1163.69 234.808C1163.65 235.798 1162.81 236.568 1161.82 236.528ZM1166.97 251.088C1165.98 251.048 1165.2 250.218 1165.24 249.218C1165.28 248.228 1166.12 247.458 1167.12 247.498C1168.11 247.538 1168.88 248.368 1168.84 249.368C1168.8 250.358 1167.96 251.138 1166.97 251.088Z" fill="#E686B4" stroke="black" stroke-miterlimit="10"/>
<path d="M1182.08 262L1176.5 257.467L1176.79 252.793" stroke="black" stroke-miterlimit="10"/>
<path d="M1186 252.19L1178.08 245.421L1173.06 244.938L1167.39 239.035" stroke="black" stroke-miterlimit="10"/>
<path d="M1158.19 230.414L1153.21 226.174" stroke="black" stroke-miterlimit="10"/>
<path d="M1162.63 245.309L1154.66 238.812" stroke="black" stroke-miterlimit="10"/>
<path d="M1210.52 129.658L1203 151.608L1191.2 146.758L1198.23 125.498L1210.52 129.658Z" fill="white" stroke="black" stroke-miterlimit="10"/>
<path d="M1193.67 98.1982L1183.26 106.518L1169.84 87.8182L1180.88 81.9082L1193.67 98.1982Z" fill="#7EC6F2" stroke="black"/>
<path d="M477.422 147.788L478.662 152.318L482.822 167.578L507.362 156.398L510.302 141.758L512.822 129.248L515.732 114.768L477.422 147.788ZM497.332 152.128C496.342 152.088 495.572 151.248 495.612 150.248C495.652 149.258 496.492 148.488 497.482 148.528C498.472 148.568 499.252 149.408 499.212 150.398C499.162 151.388 498.332 152.168 497.332 152.128ZM503.662 138.038C502.672 137.998 501.902 137.168 501.942 136.168C501.982 135.178 502.822 134.408 503.812 134.448C504.812 134.488 505.582 135.328 505.542 136.318C505.502 137.308 504.662 138.088 503.662 138.038Z" fill="#E686B4" stroke="black" stroke-miterlimit="10"/>
<path d="M499.211 150.398C499.161 151.388 498.331 152.168 497.331 152.128C496.341 152.088 495.571 151.248 495.611 150.248C495.651 149.258 496.491 148.488 497.481 148.528C498.471 148.568 499.251 149.408 499.211 150.398Z" stroke="black" stroke-miterlimit="10"/>
<path d="M505.547 136.318C505.507 137.308 504.667 138.088 503.667 138.038C502.677 137.998 501.907 137.168 501.947 136.168C501.987 135.178 502.827 134.408 503.817 134.448C504.817 134.488 505.587 135.328 505.547 136.318Z" stroke="black" stroke-miterlimit="10"/>
<path d="M481.453 162.528L487.273 158.498L487.373 153.848" stroke="black" stroke-miterlimit="10"/>
<path d="M478.406 152.508L486.696 146.448L491.656 146.358L497.686 140.978" stroke="black" stroke-miterlimit="10"/>
<path d="M507.617 133.048L512.827 129.248" stroke="black" stroke-miterlimit="10"/>
<path d="M501.977 147.558L510.307 141.768" stroke="black" stroke-miterlimit="10"/>
<path d="M505.547 136.318C505.507 137.308 504.667 138.088 503.667 138.038C502.677 137.998 501.907 137.168 501.947 136.168C501.987 135.178 502.827 134.408 503.817 134.448C504.817 134.488 505.587 135.328 505.547 136.318Z" stroke="black" stroke-miterlimit="10"/>
<path d="M499.211 150.398C499.161 151.388 498.331 152.168 497.331 152.128C496.341 152.088 495.571 151.248 495.611 150.248C495.651 149.258 496.491 148.488 497.481 148.528C498.471 148.568 499.251 149.408 499.211 150.398Z" stroke="black" stroke-miterlimit="10"/>
<path d="M990.152 658.698L983.152 657.768L986.172 664.918L981.322 666.278L982.942 673.868C972.042 658.298 976.582 649.008 982.282 645.688C984.412 644.448 987.912 644.538 991.782 645.248H991.792C991.792 645.248 991.742 645.248 991.712 645.248L994.602 652.488L988.252 652.278L990.152 658.698Z" fill="white" stroke="black" stroke-miterlimit="10"/>
<path d="M990.228 658.728L983.218 657.798L986.248 664.968L981.388 666.338L983.018 673.948H983.008C983.008 673.948 982.968 673.888 982.948 673.868L981.328 666.278L986.178 664.918L983.158 657.768L990.158 658.698L988.258 652.278L994.608 652.488L991.718 645.248C991.718 645.248 991.768 645.258 991.798 645.258L994.688 652.508L988.318 652.308L990.228 658.728Z" fill="white" stroke="black" stroke-miterlimit="10"/>
<path d="M1010.62 651.368L992.088 684.658H992.078C990.698 683.448 989.358 682.028 988.118 680.608C985.878 678.008 984.008 675.378 983.008 673.948C982.988 673.918 982.968 673.888 982.948 673.868L981.328 666.278L986.178 664.918L983.158 657.768L990.158 658.698L988.258 652.278L994.608 652.488L991.718 645.248C991.718 645.248 991.768 645.258 991.798 645.258C994.578 645.788 1000.01 647.068 1005.16 648.988C1007.07 649.698 1008.94 650.498 1010.62 651.368Z" fill="#F25D82" stroke="black" stroke-miterlimit="10"/>
<path d="M1005.11 649.128C1003.91 649.528 1000.95 650.888 1001.06 652.408C1001.23 654.318 1002.74 656.538 1000.62 658.368C998.686 660.028 995.196 660.048 994.586 662.808C993.976 665.568 996.116 667.618 994.676 669.598C992.906 672.008 987.796 669.378 987.266 672.428C986.736 675.478 990.866 678.988 988.046 680.668" stroke="black"/>
<path d="M698.565 671.718C694.545 673.238 690.065 671.218 688.545 667.198C687.025 663.188 689.045 658.708 693.055 657.188C697.065 655.658 701.555 657.688 703.075 661.698C704.595 665.708 702.575 670.198 698.565 671.718Z" stroke="black" stroke-linejoin="round"/>
</svg>
