<svg width="62" height="62" viewBox="0 0 62 62" fill="none" xmlns="http://www.w3.org/2000/svg">
<path d="M30.8288 61.3561C47.6889 61.3561 61.3568 58.6393 61.3568 55.2881C61.3568 51.9368 47.6889 49.2201 30.8288 49.2201C13.9686 49.2201 0.300781 51.9368 0.300781 55.2881C0.300781 58.6393 13.9686 61.3561 30.8288 61.3561Z" fill="#0D0D0D" stroke="#0D0D0D" stroke-width="0.6" stroke-miterlimit="10" stroke-linejoin="round"/>
<path d="M60.5558 56.5624C57.8528 53.7608 45.4955 51.7251 30.6132 51.7251C15.7309 51.7251 4.01716 53.7148 0.918847 56.4131C0.559506 56.041 0.300781 55.6808 0.300781 55.2871C0.300781 51.936 13.9685 49.2191 30.8288 49.2191C47.689 49.2191 60.595 51.7867 61.3256 55.0086C61.3688 55.2002 61.3488 55.3978 61.2841 55.5842C61.1931 55.8471 60.9918 56.2371 60.5558 56.5609V56.5624Z" fill="white" stroke="#0D0D0D" stroke-width="0.6" stroke-miterlimit="10" stroke-linejoin="round"/>
<path d="M19.7827 30.6838C24.465 30.6838 28.2608 27.1534 28.2608 22.7984C28.2608 18.4434 24.465 14.913 19.7827 14.913C15.1004 14.913 11.3047 18.4434 11.3047 22.7984C11.3047 27.1534 15.1004 30.6838 19.7827 30.6838Z" fill="#8AD6CB" stroke="#0D0D0D" stroke-width="0.6" stroke-linejoin="round"/>
<path d="M14.6537 22.9678C14.6537 19.0373 18.0795 15.8511 22.3053 15.8511C22.9625 15.8511 23.6005 15.9283 24.2098 16.0731C22.921 15.3378 21.4054 14.913 19.7827 14.913C15.1001 14.913 11.3047 18.4431 11.3047 22.7984C11.3047 27.1537 15.1001 30.6838 19.7827 30.6838C20.9749 30.6838 22.1081 30.4543 23.1374 30.0414C22.8643 30.0689 22.5864 30.0837 22.3053 30.0837C18.0795 30.0837 14.6537 26.8975 14.6537 22.967V22.9678Z" fill="#8AD6CB" stroke="#0D0D0D" stroke-width="0.6" stroke-linejoin="round"/>
<path d="M17.5122 12.6334L20.6736 31.7561L11.2852 35.0092L6.87891 40.255C6.87891 40.255 11.5527 46.545 30.7319 38.6514C48.6032 31.2956 50.6794 30.2818 52.627 29.2279L51.224 28.0997C49.1254 28.0091 46.4423 27.8991 45.1974 27.8702C42.9943 27.8197 40.5994 27.3495 40.5994 27.3495L46.5389 8.71333L17.5122 12.6334Z" fill="#E686B4" stroke="#0D0D0D" stroke-width="0.6" stroke-linecap="round" stroke-linejoin="round"/>
<path d="M19.8555 27.5088L39.3262 27.5489V32.9336L20.5502 31.7118L19.8555 27.5088Z" fill="#FFD57A" stroke="#0D0D0D" stroke-width="0.6" stroke-linecap="round" stroke-linejoin="round"/>
<path d="M27.0273 32.8062L44.3427 27.817L51.1015 28.0547L52.5037 29.1829L29.7263 38.0873" fill="#E686B4"/>
<path d="M16.4102 15.7085L18.6692 30.568L20.3453 30.6839L20.1784 30.0882L17.7341 15.3045L16.4102 15.7085Z" fill="#0D0D0D"/>
<path d="M41.2723 27.3276L40.112 22.9738L34.8992 21.1987L32.6545 21.3265C31.5621 22.5052 30.4282 21.4572 30.4282 23.1357C30.4282 24.7036 30.4865 27.4101 30.516 29.9791L20.4265 30.9677L20.5495 31.7119L17.7578 32.6299L32.716 32.5964C35.2537 32.6752 39.2895 32.6692 40.8219 31.9347C45.0006 29.9308 45.4846 27.8163 45.4846 27.8163L41.2723 27.3276Z" fill="#0D0D0D"/>
<path d="M38.8491 30.0837C43.5314 30.0837 47.3272 26.5533 47.3272 22.1983C47.3272 17.8433 43.5314 14.3129 38.8491 14.3129C34.1668 14.3129 30.3711 17.8433 30.3711 22.1983C30.3711 26.5533 34.1668 30.0837 38.8491 30.0837Z" fill="#8AD6CB" stroke="#0D0D0D" stroke-width="0.6" stroke-linejoin="round"/>
<path d="M33.6243 22.488C33.6243 18.5575 37.05 15.3713 41.2759 15.3713C42.1287 15.3713 42.948 15.5027 43.7146 15.7426C42.3371 14.8432 40.6602 14.3129 38.8491 14.3129C34.1665 14.3129 30.3711 17.843 30.3711 22.1983C30.3711 26.5536 34.1665 30.0837 38.8491 30.0837C39.8952 30.0837 40.8958 29.9062 41.8213 29.5846C41.6408 29.5965 41.4596 29.6047 41.2759 29.6047C37.05 29.6047 33.6243 26.4184 33.6243 22.488Z" fill="#8AD6CB" stroke="#0D0D0D" stroke-width="0.6" stroke-linejoin="round"/>
<path d="M27.6911 0.303162L31.3412 0.40937C33.8319 0.481414 36.1149 1.74923 37.3334 3.77164C38.552 5.79405 39.8313 9.19792 40.185 14.4118L34.9722 15.9856C34.9722 15.9856 35.5152 1.95719 28.1519 1.72175C23.7999 1.58212 24.2103 11.6689 24.2103 11.6689L20.125 12.2208C20.125 12.2208 20.2831 1.37341 27.6919 0.304647L27.6911 0.303162Z" fill="#8AD6CB" stroke="#0D0D0D" stroke-width="0.6" stroke-linejoin="round"/>
<path d="M21.7753 12.0618C21.7753 12.0618 21.2139 0.944134 28.6594 1.75889C30.8306 1.99656 34.5351 3.46194 34.9711 15.9849" stroke="#0D0D0D" stroke-width="0.6" stroke-linecap="round" stroke-linejoin="round"/>
<path d="M27.6914 0.303173C27.6914 0.303173 36.5583 -0.31031 36.4705 15.5325" stroke="#0D0D0D" stroke-width="0.6" stroke-linecap="round" stroke-linejoin="round"/>
<path d="M40.1836 30.6839V57.4959" stroke="#0D0D0D" stroke-width="0.6" stroke-linecap="round" stroke-linejoin="round"/>
<path d="M27.642 1.74626C27.642 1.74626 24.0558 1.51676 24.1891 11.5858L21.7752 11.9764C21.7752 11.9764 21.2186 0.950072 28.6027 1.75815" fill="#0D0D0D"/>
</svg>
