<svg width="106" height="106" viewBox="0 0 106 106" fill="none" xmlns="http://www.w3.org/2000/svg">
<path d="M88.9255 69.0768C85.7225 65.4953 80.2207 65.1799 76.6322 68.3829L72.6793 71.9153L66.757 77.2068L62.8041 80.7392C60.8767 82.4563 59.8955 84.8393 59.8955 87.2363C59.8955 89.2968 60.6244 91.3714 62.1103 93.0324C65.3132 96.6139 70.815 96.9293 74.3965 93.7263L88.2316 81.37C90.159 79.6529 91.1402 77.2699 91.1402 74.873C91.1402 72.8124 90.4113 70.7378 88.9255 69.0768ZM71.9294 89.458C70.2614 90.9439 67.7102 90.8037 66.2244 89.1356C64.7385 87.4746 64.8787 84.9234 66.5468 83.4376C68.2078 81.9517 70.759 82.0919 72.2448 83.76C73.7306 85.421 73.5905 87.9722 71.9294 89.458ZM84.8184 78.0269C83.1573 79.5127 80.6062 79.3725 79.1203 77.7045C77.6345 76.0434 77.7747 73.4922 79.4427 72.0064C81.1038 70.5136 83.6549 70.6607 85.1408 72.3218C86.6266 73.9899 86.4864 76.541 84.8184 78.0269Z" fill="#FFD57A" stroke="#0D0D0D" stroke-miterlimit="10"/>
<path d="M71.9302 89.458C70.2621 90.9438 67.711 90.8037 66.2251 89.1356C64.7393 87.4745 64.8795 84.9234 66.5475 83.4375C68.2086 81.9517 70.7598 82.0919 72.2456 83.7599C73.7314 85.421 73.5913 87.9722 71.9302 89.458Z" stroke="#0D0D0D" stroke-miterlimit="10"/>
<path d="M84.8187 78.0269C83.1576 79.5128 80.6065 79.3726 79.1206 77.7045C77.6348 76.0435 77.775 73.4923 79.443 72.0065C81.1041 70.5136 83.6553 70.6608 85.1411 72.3219C86.6269 73.9899 86.4868 76.5411 84.8187 78.0269Z" stroke="#0D0D0D" stroke-miterlimit="10"/>
<path d="M72.6799 71.9082V71.9152L66.7576 77.2068L59.3984 69.3781L63.4214 62.061L72.6799 71.9082Z" fill="#FFD57A" stroke="#0D0D0D" stroke-miterlimit="10"/>
<path d="M24.0467 26.1555C22.5118 27.5222 20.2059 27.4872 18.7201 26.1275C18.615 26.0364 18.5239 25.9383 18.4327 25.8402C16.9749 24.2001 17.1151 21.691 18.7551 20.2262C20.3882 18.7684 22.8973 18.9086 24.3621 20.5486C24.3831 20.5696 24.4041 20.5977 24.4252 20.6257C25.8199 22.2587 25.6587 24.7188 24.0467 26.1555Z" fill="#FFD57A" stroke="#0D0D0D" stroke-miterlimit="10"/>
<path d="M84.8187 78.0269C83.1576 79.5128 80.6065 79.3726 79.1206 77.7045C77.6348 76.0435 77.775 73.4923 79.443 72.0065C81.1041 70.5136 83.6553 70.6608 85.1411 72.3219C86.6269 73.9899 86.4868 76.5411 84.8187 78.0269Z" stroke="#0D0D0D" stroke-miterlimit="10"/>
<path d="M71.9302 89.458C70.2621 90.9438 67.711 90.8037 66.2251 89.1356C64.7393 87.4745 64.8795 84.9234 66.5475 83.4375C68.2086 81.9517 70.7598 82.0919 72.2456 83.7599C73.7314 85.421 73.5913 87.9722 71.9302 89.458Z" stroke="#0D0D0D" stroke-miterlimit="10"/>
<path d="M28.3078 36.3252L22.4135 42.0653L20.5982 40.2501L23.5909 37.2504L20.0235 33.6829L17.0238 36.6827L14.9492 34.6081L20.9907 28.5386L28.3078 36.3252Z" fill="#FFD57A" stroke="#0D0D0D" stroke-miterlimit="10"/>
<path d="M21.0176 28.5103L20.9902 28.5376" stroke="#0D0D0D" stroke-miterlimit="10"/>
<path d="M28.4408 36.199L28.3076 36.3251" stroke="#0D0D0D" stroke-miterlimit="10"/>
<path d="M44.8341 42.2964L40.727 49.5293L30.3682 38.5187L30.3191 38.4626L28.3076 36.325L20.9905 28.5383L18.7197 26.1273C20.2056 27.487 22.5114 27.5221 24.0463 26.1554C25.6583 24.7186 25.8195 22.2585 24.4248 20.6255L24.4388 20.6045L33.7323 30.4867L44.8341 42.2964Z" fill="#FFD57A" stroke="#0D0D0D" stroke-miterlimit="10"/>
<path d="M64.0515 22.5459L59.7272 33.4514L52.9848 50.6578L49.7468 58.8159L49.6627 59.0261L46.4247 67.1982C41.3714 64.549 37.4115 62.5024 34.3067 60.9255C34.2927 60.9255 34.2716 60.9115 34.2576 60.8974C26.2958 56.8394 23.9759 55.8512 23.3101 55.6409C23.1769 55.5989 23.1138 55.4517 23.1699 55.3255L30.3678 38.5187L40.7266 49.5294L44.8337 42.2964L33.732 30.4868L42.4227 10.1826L64.0515 22.5459Z" fill="#E686B4" stroke="#0D0D0D" stroke-miterlimit="10"/>
<path d="M30.4593 38.3086L30.3682 38.5189" stroke="#0D0D0D" stroke-miterlimit="10"/>
<path d="M56.1041 54.2744L52.2563 61.7877L49.6631 59.0263L49.7472 58.8161L52.9852 50.658L56.1041 54.2744Z" fill="#FFD57A" stroke="#0D0D0D" stroke-miterlimit="10"/>
<path d="M49.6635 59.0263L49.6074 58.9702" stroke="#0D0D0D" stroke-miterlimit="10"/>
<path d="M75.2515 40.5092L63.4208 62.0609L59.3978 69.3779L47.2518 91.4973L28.5176 71.025L34.1666 61.0796L34.2577 60.8974C34.2577 60.8974 34.2927 60.9184 34.3067 60.9254C37.4116 62.5024 41.3715 64.5489 46.4248 67.1982L49.6628 59.0261L52.256 61.7875L56.1038 54.2742L52.9849 50.6577L59.7272 33.4514L75.2515 40.5092Z" fill="#7EC6F2" stroke="#0D0D0D" stroke-miterlimit="10"/>
</svg>
